<svg id="Layer_1" data-name="Layer 1" xmlns="http://www.w3.org/2000/svg" viewBox="0 0 55 70"><defs><style>.cls-1{fill:#fadccf;}.cls-2{fill:#6a421e;}.cls-3{fill:#fff;}.cls-4{fill:#d27c62;}.cls-5{fill:#1a1a1a;opacity:0.2;isolation:isolate;}.cls-6,.cls-7{fill:none;}.cls-7{stroke:#6a421e;stroke-linecap:round;stroke-linejoin:round;stroke-width:0.75px;}</style></defs><title>img_boy_1</title><g id="Group_10372" data-name="Group 10372"><g id="Group_10368" data-name="Group 10368"><ellipse id="Ellipse_134" data-name="Ellipse 134" class="cls-1" cx="36.79" cy="54.19" rx="1.06" ry="1.53" transform="translate(-9.97 8.33) rotate(-11.38)"/><g id="Group_10367" data-name="Group 10367"><path id="Path_20369" data-name="Path 20369" d="M32.5,47a20.76,20.76,0,0,0-5.06-3.48c-2.57-1.11-3.92-.66-4.78.87s.62,2.76,2.14,3.4,5.08,2.34,5.85,2.35S33.41,48.1,32.5,47Z"/><path id="Path_20370" data-name="Path 20370" d="M35.4,54.34s-4.28-3.66-5.08-4.21,1-3.66,2.18-3.08,4.79,5.29,4.79,5.29Z"/></g></g><g id="Group_10370" data-name="Group 10370"><ellipse id="Ellipse_135" data-name="Ellipse 135" class="cls-1" cx="13.96" cy="53.53" rx="1.53" ry="1.06" transform="translate(-36.02 29.81) rotate(-49.99)"/><g id="Group_10369" data-name="Group 10369"><path id="Path_20371" data-name="Path 20371" d="M16.83,45.7a20.77,20.77,0,0,1,4.31-4.37c2.31-1.58,3.72-1.39,4.86-.05s-.08,2.83-1.46,3.74-4.55,3.26-5.3,3.42S16.13,46.91,16.83,45.7Z"/><path id="Path_20372" data-name="Path 20372" d="M15.36,53.41s3.51-4.4,4.19-5.09-1.7-3.4-2.72-2.61-3.7,6.1-3.7,6.1Z"/></g></g><g id="Group_10371" data-name="Group 10371"><path id="Path_20373" data-name="Path 20373" class="cls-1" d="M19.15,52A5.48,5.48,0,0,0,24,56.34a7.24,7.24,0,0,0,6.14-2.73,10.83,10.83,0,0,0,2.26-6.49A9.67,9.67,0,0,0,31,41.45c-1.84-2.8-7.34-4.28-8.67-.2A31.16,31.16,0,0,1,21,45.85C20,47.76,18.81,49.79,19.15,52Z"/><path id="Path_20374" data-name="Path 20374" d="M36.08,62.79a22.46,22.46,0,0,0-5.92-9.61,7.72,7.72,0,0,0-2.9,0,2.5,2.5,0,0,0-1.87,1.94c-.14,1.18.84,2.15,1.73,2.94q3.7,3.3,7.11,6.9c0,.36.13.86.47,1a2.09,2.09,0,0,0,1.08,0,7.83,7.83,0,0,0,3.79-2.17,2.52,2.52,0,0,0,.56-.78,1.08,1.08,0,0,0,0-.93c-.31-.53-1.07-.55-1.66-.39a4.47,4.47,0,0,0-2.36,1.17Z"/><path id="Path_20375" data-name="Path 20375" class="cls-2" d="M40.13,63a2.5,2.5,0,0,1-.56.78,7.81,7.81,0,0,1-3.8,2.16,2.09,2.09,0,0,1-1.08,0c-.3-.09-.44-.46-.47-.8a2,2,0,0,0,1.92-2h0a2,2,0,0,0,0-.37,4.51,4.51,0,0,1,2.33-1.13c.59-.16,1.35-.14,1.66.39a1.08,1.08,0,0,1,0,.93Z"/><path id="Path_20376" data-name="Path 20376" d="M32.62,47.12A41.37,41.37,0,0,1,31.82,54a3.82,3.82,0,0,1-2.33.78c-2.2,0-4.44-.05-6.64,0-.4,0-6-1-5.85-1.48.34-.76,3.26-6.64,3.62-7.36a33.8,33.8,0,0,0,1.72-4.68,3.4,3.4,0,0,1,2.73-2.45c.53,1.11,5,3.19,4.76,2.1-.08-.36-.41-.94-.06-1.15s1.17.52,1.35.75a4.48,4.48,0,0,1,.79,1.8A25.6,25.6,0,0,1,32.62,47.12Z"/><path id="Path_20377" data-name="Path 20377" class="cls-3" d="M30.4,40.08l-4.46,1,1.6,5.36"/><path id="Path_20378" data-name="Path 20378" d="M19.43,53.17A9.09,9.09,0,0,0,18.49,57c-2.64.45-4.31.42-6.38,2-2.34-.56-2.93,1.73-2.29,4.17,0,0,.5,2.18,1.47,2.41S13.7,64.13,13.2,62c3.34.71,6.47.3,8.7-2,.8-.84,3.08-3.71,3.17-4.85a3,3,0,0,0-1.59-2.92,3.87,3.87,0,0,0-3.68.6,2.09,2.09,0,0,0-.35.41Z"/><path id="Path_20379" data-name="Path 20379" class="cls-2" d="M13.22,62.07c.43,2.12-.9,3.79-1.93,3.54S9.82,63.2,9.82,63.2c-.63-2.37-.09-4.6,2.08-4.21a2.43,2.43,0,0,0,.2,1.88A3.7,3.7,0,0,0,13.22,62.07Z"/><path id="Path_20380" data-name="Path 20380" d="M31.29,52a9.14,9.14,0,0,1-1.14,1.78A7.24,7.24,0,0,1,24,56.55a5.47,5.47,0,0,1-4.84-4.34,7,7,0,0,1,.73-3.93A44.1,44.1,0,0,0,31.29,52Z"/><circle id="Ellipse_136" data-name="Ellipse 136" class="cls-1" cx="27.5" cy="24.87" r="16.97"/><path id="Path_20381" data-name="Path 20381" class="cls-2" d="M23.76,19.27a18.72,18.72,0,0,1-1.81,11.49,18.27,18.27,0,0,1-5.84,6.68,17,17,0,0,1-1.16-24h0a17,17,0,0,1,24-1.16h0l.12.11C33,15.67,23.76,19.27,23.76,19.27Z"/><path id="Path_20382" data-name="Path 20382" class="cls-1" d="M23.28,25.05a3.36,3.36,0,0,0-2.54-.66,2.18,2.18,0,0,0-1.37,3.73,5.25,5.25,0,0,0,2.39,1.49,2.93,2.93,0,0,0,1.93.18,1.65,1.65,0,0,0,1-1.05,4.12,4.12,0,0,0-1.41-3.69Z"/><path id="Path_20383" data-name="Path 20383" class="cls-1" d="M44.47,25.87h-1a1,1,0,0,1,0-2h1a1,1,0,0,1,0,2Z"/><circle id="Ellipse_137" data-name="Ellipse 137" class="cls-4" cx="33.49" cy="29.86" r="3.99"/><path id="Path_20384" data-name="Path 20384" class="cls-5" d="M25.93,36.6a17.37,17.37,0,0,1-9.71-14.05,17.43,17.43,0,0,1,5-13.46,17,17,0,0,0-9.53,22h0a17,17,0,0,0,27.56,6,17.41,17.41,0,0,1-13.36-.47Z"/><line id="Line_49" data-name="Line 49" class="cls-6" x1="27.13" y1="45.41" x2="30.4" y2="41.06"/><path id="Path_20385" data-name="Path 20385" class="cls-7" d="M35.26,20.64l4.81.85-3.49,3.67"/><path id="Path_20386" data-name="Path 20386" class="cls-4" d="M38.43,28.13l4.91-1.43s.61,5.13-1.24,5.82l-.06,0a1.88,1.88,0,0,1-2-.49,4.07,4.07,0,0,1-1.21-2.16Z"/></g></g></svg>