<svg id="Layer_1" data-name="Layer 1" xmlns="http://www.w3.org/2000/svg" viewBox="0 0 55 70"><defs><style>.cls-1{fill:#ac7a4a;}.cls-2{fill:#ffdacc;}.cls-3{fill:#704014;}.cls-4{fill:#fff;}.cls-5{fill:#e76f56;}.cls-6{fill:#1a1a1a;opacity:0.2;}.cls-7{fill:#de775b;}.cls-8{fill:#6f3900;}.cls-9{fill:#7c4a1a;}</style></defs><title>img_girl_1</title><path class="cls-1" d="M19.85,13.39c1.49.88,1.41,2.85.93,4.52a10.11,10.11,0,0,1-2.94,4.2A18.08,18.08,0,0,0,14.41,26c-1.77,3.13-1.08,7.08.23,10.44a9.64,9.64,0,0,1-9-7.91A13.29,13.29,0,0,1,5.86,24a23,23,0,0,1,5.36-10.89c1.1-1.24,2.51-2.43,4.17-2.42s3.25,1.41,4.49,2.71"/><path class="cls-1" d="M19.53,13.71c4.3,4.31-3.74,8.82-5.51,12-1.51,2.76-.35,5-.74,7.8q1.36,2-1,2a9.51,9.51,0,0,1-4.75-3.67C5.6,29,5.84,25.76,6.64,22.63,7.88,17.73,13,7.19,19.56,13.72a.45.45,0,0,0,.64-.64c-6.42-6.42-11.82,1.34-14,7.84-2.42,7.26,0,15.06,8.43,16a.45.45,0,0,0,.43-.57c-1.45-4.12-1.86-8.56,1.22-12,1.32-1.49,3-2.67,4-4.39,1.4-2.27,1.78-4.85-.16-6.79a.45.45,0,0,0-.64.64Z"/><path class="cls-2" d="M39.33,54.16c.29.79.94,1.19,1.47.89a1.63,1.63,0,0,0,.43-1.95c-.29-.79-.94-1.19-1.47-.89A1.63,1.63,0,0,0,39.33,54.16Z"/><path d="M36,46.48A20.76,20.76,0,0,0,30.92,43c-2.57-1.11-3.92-.66-4.78.87s.62,2.76,2.14,3.4,5.08,2.34,5.85,2.35S36.89,47.54,36,46.48Z"/><path d="M38.88,53.78s-4.28-3.66-5.08-4.21,1-3.66,2.18-3.08,4.79,5.29,4.79,5.29Z"/><path class="cls-2" d="M18.76,54.34c-.63.55-1.4.59-1.72.08a1.63,1.63,0,0,1,.56-1.92c.63-.55,1.4-.59,1.72-.08A1.63,1.63,0,0,1,18.76,54.34Z"/><path d="M21,45.6a20.76,20.76,0,0,1,4.31-4.37c2.31-1.58,3.72-1.39,4.86-.05s-.08,2.83-1.46,3.74-4.55,3.26-5.3,3.42S20.35,46.81,21,45.6Z"/><path d="M19.58,53.3s3.51-4.41,4.19-5.09-1.7-3.4-2.72-2.62-3.7,6.1-3.7,6.1Z"/><path class="cls-2" d="M23.07,52.83a8.59,8.59,0,0,0,0,3.78c-2.33,1-3.87,1.35-5.42,3.25-2.28,0-2.31,2.25-1.16,4.35,0,0,1,1.89,1.89,1.89s1.88-1.9.93-3.79c3.23-.1,8.45-3.83,10-6.47.55-.95,2-4.1,1.82-5.17A2.87,2.87,0,0,0,29,48.35c-1.07-.24-5.07,3.15-5.69,4-.1.14,2.26-2.36,2.21-2.2Z"/><path class="cls-3" d="M19.36,62.41c.87,1.86,0,3.69-1,3.69s-1.89-1.89-1.89-1.89c-1.11-2-1.11-4.21,1-4.34a2.3,2.3,0,0,0,.6,1.68A3.5,3.5,0,0,0,19.36,62.41Z"/><path class="cls-2" d="M23.36,51.89a5.48,5.48,0,0,0,4.84,4.34,7.24,7.24,0,0,0,6.14-2.73A10.82,10.82,0,0,0,36.6,47a9.66,9.66,0,0,0-1.37-5.67c-1.84-2.8-7.34-4.28-8.67-.2a31.2,31.2,0,0,1-1.38,4.6C24.24,47.65,23,49.68,23.36,51.89Z"/><path class="cls-2" d="M40.5,62.86c-1.06-3.46-5-8.59-7.6-11.1a7.28,7.28,0,0,0-2.75,0,2.37,2.37,0,0,0-1.77,1.84c-.13,1.11.8,2,1.63,2.78,2.33,2.08,6.58,6.26,8.73,8.53,0,.34.12.81.45.91a2,2,0,0,0,1,0,7.4,7.4,0,0,0,3.59-2,2.38,2.38,0,0,0,.53-.74,1,1,0,0,0,0-.88c-.29-.5-1-.52-1.57-.37a4.23,4.23,0,0,0-2.23,1.1Z"/><path class="cls-3" d="M44.33,63a2.37,2.37,0,0,1-.53.74,7.39,7.39,0,0,1-3.59,2,2,2,0,0,1-1,0c-.28-.09-.41-.44-.44-.76a1.86,1.86,0,0,0,1.77-2.25,4.27,4.27,0,0,1,2.2-1.07c.56-.15,1.28-.13,1.57.37a1,1,0,0,1,0,.89Z"/><path d="M36.83,47c.12,2.16-.25,8.59-.25,8.59a7.67,7.67,0,0,1-3,.8c-2.2,0-4.24,0-6.44.06-.4,0-5.3-.74-5.1-1.19.34-.76,2.43-8.73,2.78-9.45a33.8,33.8,0,0,0,1.72-4.68,3.4,3.4,0,0,1,2.73-2.45c.53,1.11,5,3.19,4.76,2.1-.07-.36-.41-.94-.06-1.15s1.16.52,1.35.75a4.49,4.49,0,0,1,.79,1.8A25.7,25.7,0,0,1,36.83,47Z"/><path class="cls-4" d="M31.62,41.21H31.4a5.76,5.76,0,0,0-1.67.33l1,6,.47,2.74.67-2.73,1.5-6.11a5.66,5.66,0,0,0-1.52-.26Z"/><path class="cls-5" d="M32.14,41.84a.61.61,0,1,0-.88.53h0l-.52,4.75,0,.44.47,2.74.67-2.73,0-.4-.18-4.78h0A.62.62,0,0,0,32.14,41.84Z"/><path d="M35.51,51.93a9.08,9.08,0,0,1-1.14,1.78,7.24,7.24,0,0,1-6.14,2.73,5.48,5.48,0,0,1-4.84-4.34,7,7,0,0,1,.73-3.93,44.11,44.11,0,0,0,11.39,3.76Z"/><path class="cls-2" d="M44.9,29.83l3,.07a17,17,0,1,0-1.44,3.26A4.17,4.17,0,0,1,44.9,29.83Z"/><path class="cls-1" d="M33.24,24.5c-.64.63-1.29,1.24-2,1.82-1.91,1.62-4.19,3-5.55,5.18a19.77,19.77,0,0,1-5.38,5.84A17,17,0,0,1,40.4,10.19c.62.37,2.49,1.3,2.72,2,.28.86-1,2.54-1.48,3.18A31.16,31.16,0,0,1,39,18.32C37.07,20.36,35.24,22.52,33.24,24.5Z"/><path class="cls-2" d="M27.5,24.95A3.36,3.36,0,0,0,25,24.29,2.18,2.18,0,0,0,23.58,28,5.26,5.26,0,0,0,26,29.51a2.93,2.93,0,0,0,1.93.18,1.65,1.65,0,0,0,1-1.05,4.12,4.12,0,0,0-1.41-3.69Z"/><path class="cls-2" d="M48.68,25.76h-1a1,1,0,0,1,0-2h1a1,1,0,0,1,0,2Z"/><path class="cls-6" d="M30.14,36.49a17.38,17.38,0,0,1-9.71-14.05A17.43,17.43,0,0,1,25.46,9a17,17,0,1,0,18,28,17.41,17.41,0,0,1-13.36-.47Z"/><line class="cls-4" x1="31.35" y1="45.31" x2="34.61" y2="40.95"/><circle class="cls-7" cx="37.74" cy="29.06" r="3.65" transform="translate(8.42 66.59) rotate(-89.6)"/><ellipse class="cls-8" cx="43.27" cy="24.06" rx="1.66" ry="2.61"/><path class="cls-9" d="M38.89,18.94a5.25,5.25,0,0,1,5.94-1.67c.45.16.65-.56.2-.72a6,6,0,0,0-6.67,1.86c-.3.37.23.91.53.53Z"/><path d="M22.69,54c4.32.3,8.42.31,12.75.31a.71.71,0,0,1,.75.43c.76,1.15,1.51,2.3,2.18,3.5l-2.76.65a16.66,16.66,0,0,1-2.25.42A16,16,0,0,1,29.44,59q-2-.31-4-.66a20.21,20.21,0,0,1-2.29-.5,4.8,4.8,0,0,1-2-.93c.12-.26.42-.4.6-.62a3.49,3.49,0,0,0,.45-.69A6.06,6.06,0,0,0,22.63,54Z"/></svg>