<svg id="Layer_1" data-name="Layer 1" xmlns="http://www.w3.org/2000/svg" viewBox="0 0 55 70"><defs><style>.cls-1{fill:#fadccf;}.cls-2{fill:#fff;}.cls-3{fill:#6a421e;}.cls-4,.cls-7{fill:none;}.cls-5{fill:#d27c62;}.cls-6{fill:#1a1a1a;opacity:0.2;isolation:isolate;}.cls-7{stroke:#6a421e;stroke-linecap:round;stroke-linejoin:round;stroke-width:0.75px;}</style></defs><title>img_boy_2</title><g id="Group_10387" data-name="Group 10387"><path id="Path_20423" data-name="Path 20423" d="M20.87,60.66a22.45,22.45,0,0,0,4.35-10.42,7.71,7.71,0,0,0-1.71-2.35,2.5,2.5,0,0,0-2.67-.38c-1,.58-1.25,1.94-1.38,3.12q-.52,4.93-1.44,9.8c-.3.21-.62.6-.51.95a2.08,2.08,0,0,0,.66.85,7.82,7.82,0,0,0,4,1.82,2.49,2.49,0,0,0,1,0,1.08,1.08,0,0,0,.74-.57c.25-.56-.18-1.19-.65-1.58a4.48,4.48,0,0,0-2.33-1.24Z"/><g id="Group_10393" data-name="Group 10393"><g id="Group_10388" data-name="Group 10388"><path id="Path_20424" data-name="Path 20424" d="M30.86,44a20.75,20.75,0,0,0-1.24-6c-1.08-2.58-2.37-3.19-4-2.69s-1.47,2.42-.81,3.93,2,5.21,2.59,5.75S30.79,45.4,30.86,44Z"/><g id="Group_10387-2" data-name="Group 10387-2"><ellipse id="Ellipse_146" data-name="Ellipse 146" class="cls-1" cx="31.97" cy="50.41" rx="1.06" ry="1.53" transform="translate(-25.23 33.32) rotate(-40.99)"/><path id="Path_20425" data-name="Path 20425" d="M30.41,50.41s-3.07-4.73-3.68-5.48,2-3.22,3-2.34S32.79,49,32.79,49Z"/></g></g><g id="Group_10390" data-name="Group 10390"><path id="Path_20426" data-name="Path 20426" d="M19.15,49.12A5.48,5.48,0,0,0,24,53.46a7.24,7.24,0,0,0,6.14-2.72,10.82,10.82,0,0,0,2.26-6.49A9.66,9.66,0,0,0,31,38.58c-1.84-2.8-7.34-4.28-8.67-.2A31.17,31.17,0,0,1,21,43C20,44.88,18.81,46.91,19.15,49.12Z"/><path id="Path_20427" data-name="Path 20427" class="cls-2" d="M30.4,37.2l-4.46,1,1.6,5.35"/><g id="Group_10389" data-name="Group 10389"><path id="Path_20428" data-name="Path 20428" d="M24.56,49.86A3.28,3.28,0,0,1,25.89,46c1-.64,2.05-1.59,3-.91s2.48,5.27,2.76,6.4c.77,3.13-.56,6-2.95,8.43,2.11.74,2.84,2.82,2.07,3.57s-2.83,0-2.83,0c-2.41-.76-4-2.49-2.3-4.16-.21-2.58.71-4,1.75-6.45,0,0-1.5-1.4-1.62-1.54A11.1,11.1,0,0,1,24.56,49.86Z"/><path id="Path_20429" data-name="Path 20429" class="cls-3" d="M28.78,60c2,.77,2.72,2.79,2,3.53s-2.83,0-2.83,0c-2.34-.74-3.93-2.39-2.45-4a2.43,2.43,0,0,0,1.69.84A3.69,3.69,0,0,0,28.78,60Z"/></g><path id="Path_20430" data-name="Path 20430" d="M31.3,49.16a9.06,9.06,0,0,1-1.14,1.78A7.24,7.24,0,0,1,24,53.67a5.47,5.47,0,0,1-4.84-4.34,7,7,0,0,1,.73-3.93A44.1,44.1,0,0,0,31.3,49.16Z"/><line id="Line_52" data-name="Line 52" class="cls-4" x1="27.14" y1="42.53" x2="30.4" y2="38.18"/></g><g id="Group_10392" data-name="Group 10392"><path id="Path_20431" data-name="Path 20431" d="M18.14,46.82a20.75,20.75,0,0,1,1.51-6c1.2-2.53,2.51-3.08,4.17-2.5s1.36,2.49.63,4S22.18,47.45,21.61,48,18.15,48.22,18.14,46.82Z"/><g id="Group_10391" data-name="Group 10391"><ellipse id="Ellipse_147" data-name="Ellipse 147" class="cls-1" cx="23.99" cy="53.07" rx="1.06" ry="1.53" transform="matrix(0.91, -0.41, 0.41, 0.91, -19.5, 14.33)"/><path id="Path_20432" data-name="Path 20432" d="M24.49,51.76s-2.42-5.09-2.74-6-3.8,0-3.54,1.3,3.86,6,3.86,6Z"/></g></g></g><path id="Path_20433" data-name="Path 20433" class="cls-3" d="M23.1,64a2.51,2.51,0,0,1-1,0,7.8,7.8,0,0,1-4-1.82,2.09,2.09,0,0,1-.66-.85.87.87,0,0,1,.38-.84,2,2,0,0,0,2.75.39h0a2,2,0,0,0,.28-.25,4.51,4.51,0,0,1,2.28,1.23c.47.39.9,1,.65,1.58a1.08,1.08,0,0,1-.74.57Z"/><circle id="Ellipse_148" data-name="Ellipse 148" class="cls-1" cx="27.5" cy="21.99" r="16.97"/><path id="Path_20434" data-name="Path 20434" class="cls-3" d="M23.77,16.39A18.72,18.72,0,0,1,22,27.88a18.26,18.26,0,0,1-5.84,6.68,17,17,0,0,1-1.16-24h0a17,17,0,0,1,24-1.16h0l.12.11C33,12.79,23.77,16.39,23.77,16.39Z"/><path id="Path_20435" data-name="Path 20435" class="cls-1" d="M23.29,22.17a3.36,3.36,0,0,0-2.54-.66A2.41,2.41,0,0,0,19,22.59a2.42,2.42,0,0,0,.36,2.65,5.25,5.25,0,0,0,2.39,1.49,2.93,2.93,0,0,0,1.93.17,1.65,1.65,0,0,0,1-1A4.12,4.12,0,0,0,23.29,22.17Z"/><circle id="Ellipse_149" data-name="Ellipse 149" class="cls-5" cx="33.49" cy="26.98" r="3.99"/><path id="Path_20436" data-name="Path 20436" class="cls-6" d="M25.93,33.72a17.38,17.38,0,0,1-9.71-14.05,17.43,17.43,0,0,1,5-13.46,17,17,0,1,0,18,28A17.42,17.42,0,0,1,25.93,33.72Z"/><path id="Path_20437" data-name="Path 20437" class="cls-7" d="M35.27,17.76l4.81.85-3.49,3.67"/><path id="Path_20438" data-name="Path 20438" class="cls-5" d="M38.43,25.25l4.91-1.44s.6,5.13-1.24,5.83l-.05,0a1.89,1.89,0,0,1-2-.49A4.07,4.07,0,0,1,38.84,27Z"/></g><path id="Path_20383" data-name="Path 20383" class="cls-1" d="M44.47,22.94h-1a1,1,0,0,1,0-2h1a1,1,0,0,1,0,2Z"/></svg>