<svg id="Layer_1" data-name="Layer 1" xmlns="http://www.w3.org/2000/svg" viewBox="0 0 55 70"><defs><style>.cls-1{fill:#ffdacc;}.cls-2{fill:#704014;}.cls-3{fill:#fff;}.cls-4{fill:#e76f56;}.cls-5{fill:#ac7a4a;}.cls-6{fill:none;stroke:#704014;stroke-linecap:round;stroke-linejoin:round;stroke-width:0.75px;}.cls-7{fill:#de775b;}.cls-8{fill:#7c4a1a;}.cls-9{fill:#1a1a1a;opacity:0.2;}</style></defs><title>img_girl_2</title><path class="cls-1" d="M37.12,50.84c.67.5,1.44.49,1.72,0a1.63,1.63,0,0,0-.69-1.87c-.67-.5-1.44-.49-1.72,0A1.63,1.63,0,0,0,37.12,50.84Z"/><path d="M36.08,50s-3.32-4.55-4-5.26,1.84-3.32,2.83-2.5,3.44,6.25,3.44,6.25Z"/><path class="cls-1" d="M35.05,60.92c1.07-3.46,0-9.65-.79-13.19-.69-.58-.66-1.52-1.52-1.79a2.37,2.37,0,0,0-2.5.52c-.73.85-.49,2.13-.22,3.22.76,3,1.91,8.87,2.41,12-.2.28-.36.74-.14,1a2,2,0,0,0,.86.54,7.4,7.4,0,0,0,4.12.33,2.38,2.38,0,0,0,.85-.32,1,1,0,0,0,.48-.75c0-.58-.54-1-1.09-1.19a4.23,4.23,0,0,0-2.47-.35Z"/><path class="cls-2" d="M38.13,63.2a2.37,2.37,0,0,1-.85.32,7.39,7.39,0,0,1-4.12-.33,2,2,0,0,1-.86-.54.82.82,0,0,1,.06-.87,1.86,1.86,0,0,0,2.73-.86,4.27,4.27,0,0,1,2.43.36c.55.19,1.13.61,1.09,1.19a1,1,0,0,1-.48.75Z"/><path class="cls-1" d="M25.15,59.93c2.61-2.51,4.63-8.47,5.68-11.92-.32-.84.16-1.65-.46-2.3A2.37,2.37,0,0,0,27.94,45c-1.05.39-1.46,1.63-1.75,2.71-.8,3-2.62,8.69-3.67,11.63-.31.15-.67.47-.61.81a2,2,0,0,0,.49.89,7.4,7.4,0,0,0,3.45,2.28,2.38,2.38,0,0,0,.9.14,1,1,0,0,0,.78-.42c.32-.49,0-1.14-.38-1.57a4.23,4.23,0,0,0-2-1.5Z"/><path class="cls-2" d="M26.74,63.42a2.37,2.37,0,0,1-.9-.14A7.39,7.39,0,0,1,22.4,61a2,2,0,0,1-.49-.89c-.05-.29.21-.57.48-.73a1.86,1.86,0,0,0,2.81.57,4.27,4.27,0,0,1,2,1.48c.39.43.69,1.09.38,1.57a1,1,0,0,1-.78.42Z"/><path d="M22.55,50.39c4.32.3,8.42.31,12.75.31a.71.71,0,0,1,.75.43c.76,1.15,1.51,2.3,2.18,3.5l-2.76.65a16.66,16.66,0,0,1-2.25.42,16,16,0,0,1-3.92-.27q-2-.31-4-.66a20.21,20.21,0,0,1-2.29-.5,4.8,4.8,0,0,1-2-.93c.12-.26.42-.4.6-.62A3.49,3.49,0,0,0,22,52a6.06,6.06,0,0,0,.48-1.58Z"/><path d="M34.76,46.79a20.76,20.76,0,0,0-5.06-3.48c-2.57-1.11-3.92-.66-4.78.87s.62,2.76,2.14,3.4,5.08,2.34,5.85,2.35S35.68,47.85,34.76,46.79Z"/><path d="M36.7,43.42c.12,2.16-.25,8.59-.25,8.59a7.67,7.67,0,0,1-3,.8c-2.2,0-4.24,0-6.44.06-.4,0-5.3-.74-5.1-1.19.34-.76,2.43-8.73,2.78-9.45a33.8,33.8,0,0,0,1.72-4.68,3.4,3.4,0,0,1,2.73-2.45c.53,1.11,5,3.19,4.76,2.1-.07-.36-.41-.94-.06-1.15s1.16.52,1.35.75a4.49,4.49,0,0,1,.79,1.8A25.7,25.7,0,0,1,36.7,43.42Z"/><path class="cls-3" d="M31.48,37.61h-.21a5.76,5.76,0,0,0-1.67.33l1,6,.47,2.74L31.77,44l1.5-6.11a5.66,5.66,0,0,0-1.52-.26Z"/><path class="cls-4" d="M32,38.24a.61.61,0,1,0-.88.53h0l-.52,4.75,0,.44.47,2.74L31.77,44l0-.4-.18-4.78h0A.62.62,0,0,0,32,38.24Z"/><line class="cls-3" x1="31.21" y1="41.71" x2="34.48" y2="37.35"/><line class="cls-3" x1="31.35" y1="41.71" x2="34.61" y2="37.36"/><path d="M22.28,46a20.76,20.76,0,0,1,1.51-6C25,37.53,26.3,37,28,37.56s1.36,2.48.63,4-2.28,5.11-2.85,5.63S22.29,47.41,22.28,46Z"/><path class="cls-1" d="M29.2,52.15c.22.81-.08,1.51-.68,1.58s-1.26-.53-1.48-1.34.08-1.51.68-1.58S29,51.34,29.2,52.15Z"/><path d="M28.63,51s-2.42-5.09-2.74-6-3.8,0-3.55,1.3,3.86,6,3.86,6Z"/><path class="cls-5" d="M18.37,11c1.65.51,2,2.44,2,4.17a10.11,10.11,0,0,1-1.87,4.78A18.08,18.08,0,0,0,16,24.46c-1,3.46.62,7.14,2.68,10.09A9.64,9.64,0,0,1,8.15,29a13.29,13.29,0,0,1-.88-4.43A23,23,0,0,1,9.91,12.71c.78-1.47,1.87-3,3.49-3.34s3.49.6,5,1.58"/><path class="cls-5" d="M18.14,11.34c4.92,3-2.5,11-2.82,14.62a10.22,10.22,0,0,0,.28,3.12c.19.85,2,3.93,1.88,4.4-.66,2.36-5.56-.52-6.8-1.68a10.38,10.38,0,0,1-3-7.25C7.37,19,9.8,6.23,18.17,11.34c.5.3.95-.48.45-.78C11,5.94,7.62,14.28,6.92,21c-.79,7.62,3.21,15.1,11.8,14a.46.46,0,0,0,.39-.68c-2.32-3.59-3.49-7.12-1.91-11.24.95-2.46,2.92-4.35,3.41-7,.43-2.32,0-4.27-2-5.52-.5-.3-.95.48-.45.78Z"/><path class="cls-1" d="M44.76,26.23l3,.07a17,17,0,1,0-1.44,3.26A4.17,4.17,0,0,1,44.76,26.23Z"/><path class="cls-1" d="M48.68,22.17h-1a1,1,0,0,1,0-2h1a1,1,0,0,1,0,2Z"/><polyline class="cls-6" points="40.67 17.99 44.33 20.07 40.44 22.04"/><circle class="cls-7" cx="37.6" cy="25.46" r="3.65" transform="translate(11.89 62.88) rotate(-89.6)"/><path class="cls-5" d="M33.1,20.9c-.64.63-1.29,1.24-2,1.82-1.91,1.62-4.19,3-5.55,5.18a19.77,19.77,0,0,1-5.38,5.84A17,17,0,0,1,40.26,6.59c.62.37,2.49,1.3,2.72,2,.28.86-1,2.54-1.48,3.18a31.16,31.16,0,0,1-2.62,2.93C36.94,16.76,35.11,18.92,33.1,20.9Z"/><path class="cls-1" d="M27.36,21.34a3.36,3.36,0,0,0-2.54-.66,2.41,2.41,0,0,0-1.73,1.08,2.42,2.42,0,0,0,.36,2.65,5.26,5.26,0,0,0,2.39,1.49,2.93,2.93,0,0,0,1.93.18,1.65,1.65,0,0,0,1-1.05,4.12,4.12,0,0,0-1.41-3.69Z"/><path class="cls-8" d="M38.75,15.34a5.25,5.25,0,0,1,5.94-1.67c.45.16.65-.56.2-.72a6,6,0,0,0-6.67,1.86c-.3.37.23.91.53.53Z"/><path class="cls-9" d="M30.14,32.9a17.38,17.38,0,0,1-9.71-14.05,17.43,17.43,0,0,1,5-13.46,17,17,0,1,0,18,28,17.41,17.41,0,0,1-13.36-.47Z"/></svg>