<svg id="參考" xmlns="http://www.w3.org/2000/svg" xmlns:xlink="http://www.w3.org/1999/xlink" viewBox="0 0 300 150"><defs><style>.cls-1{fill:url(#未命名漸層_3);}.cls-2{fill:#fff;}.cls-3{isolation:isolate;}.cls-4{fill:#222221;}</style><linearGradient id="未命名漸層_3" x1="-1344.03" y1="-7.32" x2="-1343.03" y2="-7.32" gradientTransform="matrix(283.82, 0, 0, -72.32, 381470.56, -432.51)" gradientUnits="userSpaceOnUse"><stop offset="0" stop-color="#d22d36"/><stop offset="1" stop-color="#ec6f39"/></linearGradient></defs><g id="Group_4558" data-name="Group 4558"><g id="Group_4557" data-name="Group 4557"><path id="Path_8568" data-name="Path 8568" class="cls-1" d="M290.68,71.77a5.77,5.77,0,0,0-3.83-2.16l-15.5-1.87a5.75,5.75,0,0,0-5.06-6l-9.15-1.11a5.37,5.37,0,0,0-.7,0,5.75,5.75,0,0,0-5.65,4.71l-15.27-1.85a5.48,5.48,0,0,0-.7,0,5.76,5.76,0,0,0-5.7,5.06l-.41,3.41a5.73,5.73,0,0,0-4.29-1.93H202A5.74,5.74,0,0,0,197.54,72a5.76,5.76,0,0,0-5.7-5H183.3a5.76,5.76,0,0,0-5.76,5.75v.54H175A5.75,5.75,0,0,0,169.23,79h0v5.28c-4.31-4.91-11-7.55-19.8-7.66h-.29c-8.11.3-14.37,3-18.52,7.9V75.63a5.76,5.76,0,0,0-5.76-5.75h-5.45a5.75,5.75,0,0,0-5.56-4.27h-7.41a5.77,5.77,0,0,0-5.57,4.27h-2.4a5.68,5.68,0,0,0-4-1.57H72.27a6,6,0,0,0-1.27.14c0-.83-.08-1.51-.13-2.07a5.75,5.75,0,0,0-5.73-5.27l-.49,0L38.23,63.38a5.75,5.75,0,0,0-3.91,2,5.74,5.74,0,0,0-5.18-3.26l-.49,0-8.28.7A5.75,5.75,0,0,0,15.13,68l-1.3.11a5.75,5.75,0,0,0-5.25,6.22h0L9.14,81a5.76,5.76,0,0,0-1,3.8l.59,6.94a5.75,5.75,0,0,0,1.8,3.71,6,6,0,0,0-.19,2s.58,6.8.59,6.83a5.73,5.73,0,0,0-1,3.8l.59,6.94a5.77,5.77,0,0,0,5.74,5.27l.48,0,2.78-.24.22,2.56a5.75,5.75,0,0,0,5.72,5.26,4.26,4.26,0,0,0,.5,0l8.28-.7a5.73,5.73,0,0,0,4.56-3,7.36,7.36,0,0,0,.63.62,5.78,5.78,0,0,0,3.71,1.35,4,4,0,0,0,.49,0l7.61-.64a5.92,5.92,0,0,0,1.66-.4h.07a5.79,5.79,0,0,0,3-.86,14.65,14.65,0,0,0,2.07-1.6l0,0c.75-.68,1.43-1.32,2.06-1.92a55.65,55.65,0,0,0,5.07,2.8,5.68,5.68,0,0,0,4,.38,5.71,5.71,0,0,0,4,1.59,12.61,12.61,0,0,0,2.45-.29c1.61-.19,3-.33,4.16-.45v.38a5.74,5.74,0,0,0,5.74,5.76h7.2a5.76,5.76,0,0,0,5.75-5.75v-3.69h0a39.39,39.39,0,0,1,.91,4,5.76,5.76,0,0,0,5.67,4.76c5.17,0,8.58-.08,10.39-.23,8.1-.11,13.28-5,13.56-12.69l.08-1.57c4.27,5.91,11.54,9.22,21.39,9.56h.2c7.23,0,12.48-1.66,16.27-4.07a5.78,5.78,0,0,0,1.83,4.33c2.17,2,4.16,3.94,5.92,5.7a5.76,5.76,0,0,0,8.14,0,5.93,5.93,0,0,0,1.14-1.62l.16-.34c3.77,1.54,8.62,2.3,14.63,2.3h26.75a5.74,5.74,0,0,0,5.34-3.63,34.23,34.23,0,0,0,1.3-4.33c.34-1,.61-1.89.82-2.61a6.16,6.16,0,0,0,1.12-.22,98.24,98.24,0,0,0,10.41-3.83l-.27,2.25a5.76,5.76,0,0,0,5,6.4l9.15,1.11a5.75,5.75,0,0,0,6.4-5l.31-2.54a89.16,89.16,0,0,0,9.86,6.2,5.75,5.75,0,0,0,7.58-1.87c1.36-2.06,3.1-4.46,5.17-7.13a5.75,5.75,0,0,0-1-8.07,6.08,6.08,0,0,0-1.35-.78c-.8-.33-1.57-.66-2.32-1l4.8-4.59a5.75,5.75,0,0,0,.45-7.84c-1.39-1.67-2.83-3.35-4.3-5l.47.06c.23,0,.46,0,.7,0a5.76,5.76,0,0,0,5.7-5.06l1-8A5.78,5.78,0,0,0,290.68,71.77Z"/><path id="Path_8569" data-name="Path 8569" class="cls-2" d="M15.59,107.61l8.51-.72-.32-3.8-7.17.6L16.05,97l2.68-.23-2.17-4.33,7.09-1.5,2.47,5.2,2.46-.21,1.34-5.52,7.47.27-1.64,4.65,2.91-.25.57,6.72-7.16.6.32,3.81,8.28-.7.59,6.94-8.28.7.7,8.29-8.29.7-.7-8.29-8.51.72Zm5.26-39,8.29-.7.4,4.7L36.26,72,36.85,79l-6.72.57.28,3.36,8.07-.68.59,6.94L14.43,91.25l-.59-6.94,8.29-.7-.29-3.36-6.94.59-.59-7,6.94-.58Zm29.83,51.15-7.61.65L38.72,69.12l26.42-2.25c.09,1,.15,2.7.19,4.95a38.88,38.88,0,0,1,.2,5q.41,7.4-6.54,8l-7.61.64c-.26-1.18-.69-2.8-1.32-4.85a9,9,0,0,1-.37-1.77l4.7-.4Q58,78.32,57.48,75L47,75.86l1,11.87,19.48-1.65.69,8.06a56.31,56.31,0,0,1-4.29,13.22,51.91,51.91,0,0,0,7.3,3.67,31.54,31.54,0,0,0-3.45,7.28,46.44,46.44,0,0,1-8.33-5.16,59.12,59.12,0,0,1-5.2,5.18,10.14,10.14,0,0,1-1.26,1,34.42,34.42,0,0,0-2.66-4.74ZM54,94.66l-5.37.46.29,3.36Zm0,13.53a60.71,60.71,0,0,1-5-7.92l1,11.42a9.86,9.86,0,0,0,1.06-.77c.69-.66,1.67-1.57,2.92-2.73Zm.42-13.57A45.15,45.15,0,0,0,58.19,102a61.36,61.36,0,0,0,2.27-7.86Z"/><path id="Path_8570" data-name="Path 8570" class="cls-2" d="M72.27,81.48V74.06H94.52v7.42h-1.8v43.6H85.53v-6.52a105.34,105.34,0,0,0-10.79.9,10.23,10.23,0,0,1-1.57.22L71.82,112a16.21,16.21,0,0,0,2.7-.22V81.48Zm9.44,0v5.39h3.82V81.48Zm0,11.91v5.4h3.82v-5.4Zm0,17.76,3.82-.45v-5.4H81.71Zm12.14-10.79h32.81v6.29H106l-.45,2h18.2l-.45,8.32q-.23,7.19-8.09,7.19-2.25.22-10.12.22a41.61,41.61,0,0,0-1.8-7q3.15.23,9.44.22,2.48,0,2.7-1.8v-1.35H104.64l-.23,1.13H96.1l1.8-9H93.85Zm12.59-29h7.41v4.27h11V98.56H95.65V75.64h10.79Zm-3.82,10.56V84.4h3.82V81.93Zm0,8.09v2.47h3.82V90Zm15.28-8.09h-4.05V84.4h4.05ZM113.85,90v2.47h4.05V90Z"/><path id="Path_8571" data-name="Path 8571" class="cls-2" d="M169.14,101.51v2.7H141.49q.67,7.2,9,7.86c4.2,0,6.74-1.42,7.65-4.27l11.68,1.35q-4.27,10.34-19.1,10.34-19.34-.67-20.23-17.75.9-18.66,18.88-19.33Q168.92,82.64,169.14,101.51Zm-27.87-4.05h17.3q-.67-7-8.54-7.64Q141.95,90.27,141.27,97.46Z"/><path id="Path_8572" data-name="Path 8572" class="cls-2" d="M175.65,100.61l7.64.67a55,55,0,0,1-.44,10.34,9.73,9.73,0,0,0,3.6,3.82V98.59h-13V91.17h9.88V86.23H175V79h8.31V72.74h8.55V79h7.42v7.2h-7.42v4.94h9v7.42h-6.29v6.07h5.84v7.19h-5.84v6.29a38.05,38.05,0,0,0,4.27.23q9.44.22,29-.23a38.92,38.92,0,0,1-1.13,3.82,36.31,36.31,0,0,1-1.12,3.82H198.8q-13.71,0-17.3-5.62a48.29,48.29,0,0,1-2.7,7q-2.7-2.7-6.07-5.84Q175.88,115.44,175.65,100.61Zm44-1.12c3.3,1.05,5.92,1.79,7.87,2.24q-.45,3.38-1.35,7.64-1.12,7.42-9,7h-6.52q-9,.22-8.76-8.76V75.66h22.47V97.91H210.49v7.65q-.23,3.15,2.92,2.92h2.47a2.62,2.62,0,0,0,2.91-2.29,2.81,2.81,0,0,0,0-.41,39.39,39.39,0,0,0,.9-6.29Zm-3.6-15.74h-5.62v6.07h5.62Z"/><path id="Path_8573" data-name="Path 8573" class="cls-2" d="M256.46,66.3l9.15,1.11L265,72.76l21.2,2.56-1,8L264,80.8l-1.86,15.39q6.19,10.49,21.08,16.58-3.21,4.14-5.43,7.5-12.11-6.67-17-13.15L259.13,121,250,119.85,251.66,106q-6.06,5.15-19.22,9.22c-.23-.63-.64-1.59-1.24-2.87q-1.63-3.36-2.5-5.51Q244,104,253,95.08l1.86-15.39-21-2.53,1-8,21,2.53ZM231,93.34a27.19,27.19,0,0,0,9.84-14l8.2,1.44c-.67,1.73-1.4,3.46-2.21,5.17a53,53,0,0,1,6,6.83l-5.88,5.63c-.53-.67-1.24-1.66-2.13-3s-1.61-2.3-2.13-3a52.63,52.63,0,0,1-6.55,7.36l-1.77-2.25A41.53,41.53,0,0,0,231,93.34Zm31.86.45A24.09,24.09,0,0,0,270.74,83l8.2,1.44a29.85,29.85,0,0,1-2.4,4.92q3.79,4.08,7.36,8.36L278,103.32q-2.94-3.75-5.86-7.73a41.92,41.92,0,0,1-4.39,4.45q-2.32-3.23-4.9-6.25Z"/></g><g id="三商美邦人壽" class="cls-3"><g class="cls-3"><path class="cls-4" d="M59.14,38.81h28v4.8h-28Zm1.64-19.57H85.39v4.92H60.78ZM62.19,29H84.1v4.81H62.19Z"/><path class="cls-4" d="M101.73,17.36h4.8v2.23h11.25v3.63H107.59l4.33.59-1.4,2.11h6.21V40.45c.16,3.12-1.25,4.61-4.22,4.45l-4.57.12c-.16-.94-.35-1.88-.59-2.81H98V34a1.44,1.44,0,0,1-.82.24,11,11,0,0,0-.82-1.53c-.31-.54-.55-.93-.7-1.17q3.63-.59,4.21-2.11H95.4V45.14H91V25.92h6.21l-1.41-2.11,4.34-.59H89.89V19.59h11.84Zm7.85,16.53v7.38h1.06c1.17.08,1.71-.47,1.64-1.64V29.43h-5.39v.71c-.08.54.19.78.82.7h.7c.39,0,.58-.39.58-1.17a11.71,11.71,0,0,0,2.58.58q-.12,3-3.16,2.82h-2.34A1.87,1.87,0,0,1,104,31V29.43h-1.29q-.58,3-4.46,4.46Zm-9-10.67,1.76,2.7h3l1.76-2.7Zm1.29,15.94h4v-2h-4Z"/><path class="cls-4" d="M132,33.77h4.92v1.17h11.14v3.52H137.4q1.75,2.22,11.37,2.46a25.13,25.13,0,0,0-1.17,2.46c-.4.86-.67,1.48-.82,1.87q-8.91-.82-12.19-3.86-3,2.56-12.31,4.1a18,18,0,0,0-.93-1.88,20.4,20.4,0,0,0-1.06-2.22q9.15-.48,10.67-2.93h-9.85V34.94h10.78a1.92,1.92,0,0,1,.12-.59Zm-10.78-13.6h6c-.24-.39-.59-.93-1.06-1.64-.23-.39-.39-.66-.47-.82l5.16-.58a19,19,0,0,1,1.76,3h4l.94-1.52a15.82,15.82,0,0,1,.82-1.52l5.15.58a4.37,4.37,0,0,1-.46.71l-1.18,1.75H148v3.52h-11V25h9.49v3.51h-9.49v1.18h11.49V33.3H120.64V29.67H132V28.49h-9V25h9V23.69H121.23Z"/><path class="cls-4" d="M165.34,31.19h-3.87v1.29a3.06,3.06,0,0,1-.12.7v.59H166v4.1h-4.92c-.16,2.66-1.48,5.27-4,7.85-1.65-1.25-3-2.19-4-2.81a9.88,9.88,0,0,0,3.17-5h-4.81v-4.1h5.27V31.19h-4.21v-4.1h4.21V24.51l-4.68.23a39.4,39.4,0,0,0-.82-4.1c1.95-.15,2.14-.15.58,0,1.56-.15,3.21-.23,4.92-.23V17.36h4.69v2.81l3.63-.35,1.18,4.1c-1.64.08-3.25.2-4.81.36v2.81h3.87ZM176.71,30c2.11,2.11,3.08,4.26,2.93,6.44q.11,5.28-4.93,5.51h-2.57l-.82-3.16v6.33h-4.58V18.53h12.19v4.22Zm-5.39-7.27V37.52a8.21,8.21,0,0,0,2,0c1.17,0,1.72-.63,1.64-1.88q0-2.34-2.7-5.39l2-7.5Z"/><path class="cls-4" d="M193.28,17.48h5.15c-.08,1.48-.15,2.93-.23,4.34q.35,13.59,12.19,18.51c-.4.47-1,1.13-1.76,2-.86,1.17-1.53,2-2,2.58q-8.2-4.45-10.55-12.3Q194.22,39.86,185,45.25a32.68,32.68,0,0,0-3.17-4.33Q193,35.3,193,24.16C193.2,22.28,193.28,20.06,193.28,17.48Z"/><path class="cls-4" d="M212.89,34.24h27.89V36.7h-2.57v.94h2.57v2.69h-2.57V42c.07,2.27-1,3.36-3.29,3.28-1.09.08-2.53.12-4.33.12a3.06,3.06,0,0,0-.12-.7c-.16-.63-.27-1.14-.35-1.53l-.7.71a21.49,21.49,0,0,0-3.17-2.11l1.53-1.41h-1.64V37.64h7.61V36.7H212.89Zm2.58-6.1h20.74l.24-.82H213V24.86H240.9l-.82,4.81-3.4-.35v1.05H229v.94h9.61v2.11H214.18V31.31h10.08v-.94h-8.79Zm-.7-6.09h9.49v-.94h-10.9V18.65h10.9V17.24H229v1.41h11.37v2.46H229v.94h9.84v2.11h-24Zm-.7,15.59h11.36V44.9h-4.1v-1h-3.28v1h-4Zm4,2.46v1.4h3.28V40.1Zm14.77,2.11c.7.07,1-.2.93-.82V40.33h-4a12.78,12.78,0,0,1,2,1.29l-.7.59Z"/></g></g></g></svg>