<svg xmlns="http://www.w3.org/2000/svg" viewBox="0 0 250 180"><defs><style>.cls-1{isolation:isolate;}.cls-2{fill:#363535;}.cls-3,.cls-6{fill:#222221;}.cls-4{fill:#464646;}.cls-5{fill:#6a686b;}.cls-6{mix-blend-mode:darken;}.cls-7{fill:#fff;}.cls-8{fill:#3fa9f5;}.cls-9{fill:#fadccf;}.cls-10,.cls-11,.cls-22{fill:none;}.cls-10{stroke:#4d4d4d;stroke-width:0.67px;}.cls-10,.cls-22{stroke-linecap:round;stroke-linejoin:round;}.cls-12{fill:#683b11;}.cls-13{fill:#6a421e;}.cls-14{fill:#d27c62;}.cls-15{fill:#fff188;}.cls-16{fill:#f4dcd0;}.cls-17{fill:#333;}.cls-18{fill:#cb7a63;}.cls-19{fill:#9f7d58;}.cls-20{fill:#c68067;}.cls-21{fill:#623d1a;}.cls-22{stroke:#6f4d2b;stroke-width:1.3px;}.cls-23{fill:#6f4d2b;}</style></defs><g class="cls-1"><g id="設計稿"><g id="Group_3641" data-name="Group 3641"><path id="Rectangle_2151" data-name="Rectangle 2151" class="cls-2" d="M40.82,156l-25.4,5.45a3.37,3.37,0,0,1-4-2.59h0L8.25,144.09h0l32-6.85h0l3.17,14.81A3.35,3.35,0,0,1,40.82,156Z"/><rect id="Rectangle_2152" data-name="Rectangle 2152" class="cls-3" x="7.71" y="134.55" width="32.7" height="10.53" rx="3.79" transform="translate(-28.76 8.14) rotate(-12.1)"/><rect id="Rectangle_2153" data-name="Rectangle 2153" class="cls-4" x="7.57" y="133.93" width="32.7" height="10.53" rx="3.79" transform="translate(-28.63 8.1) rotate(-12.1)"/><path id="Path_8315" data-name="Path 8315" class="cls-4" d="M17.33,136.4a5.86,5.86,0,1,1,7,4.5A5.85,5.85,0,0,1,17.33,136.4Zm1.84-.4a4,4,0,1,0,3.06-4.72h0A4,4,0,0,0,19.17,136Z"/><rect id="Rectangle_2154" data-name="Rectangle 2154" class="cls-5" x="23.09" y="143.51" width="4.38" height="3.04" rx="0.83" transform="translate(-29.83 8.52) rotate(-12.1)"/></g><path class="cls-6" d="M49,105.63s-3.89,26.29-5.11,45.79H83.52s-2.31-29.15,0-44.41Z"/><path class="cls-7" d="M57.27,110.85s5.57,29.77,7.66,33.63h1.4s9-29.46,8.88-33.63Z"/><polygon class="cls-8" points="66.28 114.01 62.6 117.58 65.72 121.48 69.38 118 66.28 114.01"/><polygon class="cls-8" points="64.22 119.31 61.44 131.48 64.22 144.48 66.33 144.48 70.29 131.13 67.02 118.53 64.22 119.31"/><path class="cls-6" d="M88.81,107.66s19.14,15.25,16.7,25-16.7,0-16.7,0L78,110.85S88,108.32,88.81,107.66Z"/><path class="cls-9" d="M14.45,125.05a6.08,6.08,0,0,0,.3,5.47,7.4,7.4,0,0,0,4.12,2.62,24.16,24.16,0,0,0,5.52,1.06,5.92,5.92,0,0,0,2.18-.16A4.4,4.4,0,0,0,28.26,133c2.54-2.52,2.45-7,.15-9.74C24.44,118.49,16.69,119.12,14.45,125.05Z"/><path class="cls-6" d="M49,120.34s-4.57-6.16-12.41-5.48c0,0-7.38,8.38-7.15,9.22,0,0-8.53,2.09-11.67-3.74,0,0,5.59-21,22-20.72s16.22,15.24,16.22,15.24Z"/><polyline class="cls-10" points="48.97 110.85 53.61 115.72 48.97 120.77 62.84 144.48"/><polyline class="cls-10" points="82.32 111.13 77.67 116.01 82.32 121.06 68.44 144.77"/><path class="cls-9" d="M87.5,113.36a8.4,8.4,0,0,1,4.64,4,14.4,14.4,0,0,1,1.6,6,8.7,8.7,0,0,1-1.07,5.44A6.45,6.45,0,0,1,87,131.47,10.52,10.52,0,0,1,81.08,129a3.48,3.48,0,0,1-1-1.21c-.34-.74-.2-1.67-.66-2.35-.28-.43-.76-.69-1.06-1.11a1.77,1.77,0,0,1,.72-2.46c-1.89-1.28.07-4.58,1-6A6.79,6.79,0,0,1,87.5,113.36Z"/><circle class="cls-9" cx="67.95" cy="81.05" r="33.81"/><path class="cls-9" d="M94.94,91.25a6.69,6.69,0,0,1,4.42-2.8,4.34,4.34,0,0,1,4.9,6.22,10.57,10.57,0,0,1-3.61,4.3,5.78,5.78,0,0,1-3.54,1.51,3.28,3.28,0,0,1-2.56-1.36c-1.4-2-.9-6,.39-7.87Z"/><path class="cls-9" d="M38.78,83.86a6.68,6.68,0,0,0-3-4.3,4.77,4.77,0,0,0-4-.64,4.81,4.81,0,0,0-2.92,4.47,10.53,10.53,0,0,0,1.65,5.35,5.88,5.88,0,0,0,2.68,2.78,3.28,3.28,0,0,0,2.89-.26c2.05-1.28,3.15-5.16,2.7-7.4Z"/><path class="cls-11" d="M72.59,68.75l2,.72v-.1Z"/><ellipse class="cls-12" cx="54.98" cy="88.28" rx="4.61" ry="2.94" transform="translate(-33.49 142.95) rotate(-89.8)"/><ellipse class="cls-12" cx="81.4" cy="90.35" rx="4.61" ry="2.94" transform="translate(-14.84 164.7) rotate(-85.67)"/><path class="cls-13" d="M75.56,39.79A59.94,59.94,0,0,0,57,40.4c-17.79,3.8-32.26,23.36-24,41.29,1.44,3.11,1.7,1.48,2.4-.38,2-5.22,4.13-10.4,10.09-12.13a15.38,15.38,0,0,1,4.49-.45c7.29.11,14.48,1.64,21.71,2.61s14.73,1.35,21.7-.78a1.92,1.92,0,0,1,1-.11,1.75,1.75,0,0,1,.86.69,26.12,26.12,0,0,1,4.91,9.91c.42,1.62.7,10.37,3.3,6.79a21.23,21.23,0,0,0,3.77-16.7,23.9,23.9,0,0,0-4-9.56c-.77-1.16-2.85-2.87-3.2-4.15-.47-1.75,1.88-2.58,3.35-3.59a70.27,70.27,0,0,0,6.64-5c-8.08.46-14.38-4.42-21.66-6.85a40.19,40.19,0,0,0-7.29-1.52C79.31,40.21,77.44,40,75.56,39.79Z"/><path class="cls-12" d="M58.35,78.66a.66.66,0,0,0-.15-.22,6.79,6.79,0,0,0-4.62-1.83,2.75,2.75,0,0,0-1.36.25,1.32,1.32,0,0,0-.68,1.71,1.92,1.92,0,0,0,1.34.92c.49.12,1,.21,1.49.31l3.26.67a1,1,0,0,0,1.13-.89A1,1,0,0,0,58.35,78.66Z"/><path class="cls-12" d="M80.26,79a.65.65,0,0,1,.15-.23A6.71,6.71,0,0,1,85,76.87a2.79,2.79,0,0,1,1.37.22,1.32,1.32,0,0,1,.71,1.69,1.89,1.89,0,0,1-1.31,1c-.49.14-1,.23-1.49.35L81,80.82A1,1,0,0,1,80.26,79Z"/><circle class="cls-14" cx="43.02" cy="96.11" r="6.47"/><circle class="cls-14" cx="92.13" cy="93.15" r="6.47"/><path class="cls-14" d="M64.08,104.43a20,20,0,0,0,8.77.15,17.48,17.48,0,0,0,7.37-3.79c.49-.43-.23-1.14-.72-.72a16.24,16.24,0,0,1-6.92,3.53,18.89,18.89,0,0,1-8.23-.14c-.63-.13-.9.85-.27,1Z"/><path class="cls-12" d="M67,89a26.05,26.05,0,0,1-.39,6,3.65,3.65,0,0,0,.25,2.37,3.17,3.17,0,0,0,1.64,1.42c.61.24.87-.74.27-1a2,2,0,0,1-1.18-1.31,6.19,6.19,0,0,1,.2-2.45A24.2,24.2,0,0,0,68,89c0-.65-1-.65-1,0Z"/><path class="cls-15" d="M27.1,47.82c-1.93-.43-4.46-.41-6-1.75s-1.8-4.34-1.67-6.27c.09-1.31-1.9-1.28-2,0-.32,3.55-2.33,8.17-6.31,8.76a1,1,0,0,0,0,1.95c3.94.61,7.12,3.47,7.34,7.59.05,1.06,1.81,1.45,2,.26L20.87,55a4.67,4.67,0,0,1,.7-2.34c.92-1.19,2.57-1.76,3.91-2.35a12.82,12.82,0,0,1,1.62-.54A1,1,0,0,0,27.1,47.82Z"/><path class="cls-4" d="M227,123.76a4.26,4.26,0,0,0-.55-.85,10.07,10.07,0,0,0-3.44-2.55l-.12-.06a4,4,0,0,1-.3,1.68l.11.06a6.63,6.63,0,0,1,1.66,1.36.69.69,0,0,0,.22.2l.17,0c.8.11,1.58.28,2.37.44A2,2,0,0,1,227,123.76Z"/><path d="M171.7,93c-5.62-3.59-22.88-44.46-22.88-44.46-5.26,3.55-10.41,0-10.41,0l22.86,63.71"/><path class="cls-7" d="M179.72,97.3l7.22,36.48s11.66-27.9,13.16-36.48Z"/><path class="cls-16" d="M181.39,105.73l5.55,28.05s8.62-19.46,10.12-28Z"/><path d="M203.75,133.78c-.62-10.45,12.87-19.48,8.29-29.53-1.57-3.44-3.91-9.84-7.71-10.53-2.51-.46-5.55,0-8.1,0H181.7L170.28,90l-9,22.19c5.41,21.5,1.54,36.15.6,39.19h45.39C206.6,148.83,204,138.45,203.75,133.78Z"/><path class="cls-17" d="M179.18,90l-1.47,4.42-1,3.13a8.26,8.26,0,0,0-.64,1.91c0,.43.23.62.5,1l2,2.62c.13.17.4.72.61.81-.08,0,.31-.4-.09-.07a14.43,14.43,0,0,0-1.56,1.91l-3.74,4.57a.34.34,0,0,0,0,.37l8.66,17.56c.18.36.72.05.54-.31l-5.1-10.34-3-6.06a5.11,5.11,0,0,0-.56-1.15c.24.27-.25.47.2,0a11.1,11.1,0,0,0,.88-1.07L179.7,104a.32.32,0,0,0,.05-.38l-2.56-3.35c-.17-.23-.37-.46-.53-.7s0,.27,0,0a8.19,8.19,0,0,1,.44-1.35l2.69-8.1c.13-.38-.48-.55-.6-.17Z"/><path class="cls-17" d="M203.36,94.2l.63,8.51a10.85,10.85,0,0,1,.1,1.4c0,.29.22-.22,0,0s-.46.37-.68.55l-3.3,2.63a.32.32,0,0,0-.05.37l2.52,5.34.7,1.49c.1.22.25.8.45,1,0,0,.25-.29,0-.19s-.32.37-.4.46l-9.16,10.78-3,3.56c-.25.31.18.75.44.45l12.68-14.93a.32.32,0,0,0,.05-.37l-2.11-4.48L201,108.06a4,4,0,0,0-.31-.66c-.13-.17,0,.27-.06.28s.2-.18.3-.23a21.88,21.88,0,0,0,2.46-2c.38-.3,1.22-.73,1.38-1.21a4.59,4.59,0,0,0-.09-1.38l-.23-3.06L204,94.2c0-.4-.65-.4-.62,0Z"/><path id="Path_8326" data-name="Path 8326" class="cls-7" d="M191.77,94h-1.11a35.65,35.65,0,0,0-8.76,1l4.2,26.17L188,133l4-11.59,9-25.9a35.2,35.2,0,0,0-7.82-1.49Z"/><path id="Path_8327" data-name="Path 8327" class="cls-18" d="M193.91,102.59a3.28,3.28,0,0,0-6.3-.52,2.44,2.44,0,0,0,1.68,2.31v0L186,122.53l0,1.69,2.08,10.68,3.84-10.31.29-1.54-.31-18.44h0A2.48,2.48,0,0,0,193.91,102.59Z"/><path class="cls-19" d="M233.76,69.5c-1.61,8.58,3.07,17.1,8.7,23.78-10,3.1-21.91-1.84-26.77-11.13a31.93,31.93,0,0,1-3.11-10.5,63.6,63.6,0,0,1,.35-21.19c1.74-8.52,5.79-12.63,14.62-11.12,4,.68,8.32,2.17,10.41,5.67a15.42,15.42,0,0,1,1.68,5.47C240.81,57.7,235.05,62.55,233.76,69.5Z"/><path class="cls-19" d="M232.58,69.17c-1.64,9.35,3.21,18,9,25l.53-2A22.26,22.26,0,0,1,222,87.89c-7-5.72-8.47-14.81-8.82-23.35a56,56,0,0,1,1.07-14.27c.62-2.83,1.59-5.83,3.76-7.87s5.07-2.33,7.84-2.07c3.56.33,7.73,1.39,10.22,4.13,1.64,1.79,2.23,4.42,2.48,6.78a13.2,13.2,0,0,1-1,6.11c-1.56,4-4.09,7.54-4.94,11.82-.31,1.54,2,2.19,2.35.65.84-4.21,3.32-7.73,4.88-11.66a16.35,16.35,0,0,0-.38-13c-1.88-3.92-6.09-5.85-10.13-6.73-3.45-.76-7.19-1.06-10.47.48A12.08,12.08,0,0,0,213,45.78c-1.72,4.32-2.19,9.25-2.33,13.85A63.64,63.64,0,0,0,212,75.45a25.75,25.75,0,0,0,6,12,24.79,24.79,0,0,0,24.79,7,1.23,1.23,0,0,0,.54-2c-5.17-6.19-9.85-14.22-8.39-22.6C235.2,68.28,232.85,67.62,232.58,69.17Z"/><circle id="Ellipse_46" data-name="Ellipse 46" class="cls-16" cx="191.07" cy="60.96" r="36.56"/><path id="Path_8328" data-name="Path 8328" class="cls-11" d="M198.63,48.94l1.92,1.18,0-.1S199.86,49.63,198.63,48.94Z"/><path id="Path_8329" data-name="Path 8329" class="cls-19" d="M156.78,73.67c-8.15-17.33,1.13-36.47,15.12-46,9.24-6.3,22.12-5.67,32.44-2.85a33.37,33.37,0,0,1,18.58,12.26c5.63,7.85,5.12,16.77,5.87,25.85a5,5,0,0,1-.18,2.31c-.6,1.43-1.91,1.12-3.13,1a52.41,52.41,0,0,1-6.9-1.3,134.92,134.92,0,0,1-13.43-4.38c-6.67-2.44-13.33-4.88-19.79-7.79-7-3.12-11.67-7.58-16.88-12.89-4.79,2.79-7.19,10.14-8.82,15.07-1.69,5.15-3.32,10.92-3.2,16.4A12.73,12.73,0,0,0,156.78,73.67Z"/><circle id="Ellipse_47" data-name="Ellipse 47" class="cls-20" cx="165.33" cy="72.69" r="6.99"/><path id="Path_8331" data-name="Path 8331" class="cls-16" d="M159.2,68.15A7.23,7.23,0,0,0,157,63a4.69,4.69,0,0,0-8.17,2.56,11.31,11.31,0,0,0,.59,6,6.3,6.3,0,0,0,2.24,3.51,3.53,3.53,0,0,0,3.11.34c2.45-.91,4.44-4.78,4.45-7.26Z"/><path id="Path_8331-2" data-name="Path 8331" class="cls-16" d="M222.1,73a7.24,7.24,0,0,1,4.15-3.83,5.16,5.16,0,0,1,4.39.27,5.22,5.22,0,0,1,2,5.4,11.3,11.3,0,0,1-3,5.27,6.34,6.34,0,0,1-3.47,2.3,3.62,3.62,0,0,1-3-1c-1.86-1.83-2.1-6.19-1.09-8.44Z"/><ellipse id="Ellipse_48" data-name="Ellipse 48" class="cls-21" cx="179.57" cy="63.81" rx="4.99" ry="3.17" transform="translate(106.37 239.76) rotate(-86.97)"/><path id="Path_8332" data-name="Path 8332" class="cls-22" d="M170.28,54a10.6,10.6,0,0,1,12.1-3.23"/><ellipse id="Ellipse_49" data-name="Ellipse 49" class="cls-21" cx="202.19" cy="65.69" rx="4.99" ry="3.17" transform="translate(125.91 264.14) rotate(-86.97)"/><path id="Path_8333" data-name="Path 8333" class="cls-22" d="M199.36,53a10.58,10.58,0,0,1,12,3.51"/><path id="Path_8334" data-name="Path 8334" class="cls-7" d="M190.35,91.45a6.61,6.61,0,0,1-.89,0A7.78,7.78,0,0,1,185,89.36a16.14,16.14,0,0,1-3.14-3.53A14.7,14.7,0,0,1,179.49,76c-.15,2.12,0,0,0,0l21.79.74a42.1,42.1,0,0,1-1.4,5.32,20.94,20.94,0,0,1-2.64,4.63C195.63,88.82,193.39,91.24,190.35,91.45Z"/><circle id="Ellipse_50" data-name="Ellipse 50" class="cls-20" cx="214.99" cy="73.67" r="6.99"/><path class="cls-16" d="M149.56,38.81s-1-8.11-8.8-6.13-7.16,13.89-4.17,16.83,13.84,4.27,15.54-6C152.13,43.5,152.85,39.58,149.56,38.81Z"/><path d="M200.88,121.44s3.26,11.45,13.16,11.15,10.19-21.68,10.19-21.68L211,106Z"/><path class="cls-23" d="M189.83,66.32a5.8,5.8,0,0,1-.58,1.6,4.58,4.58,0,0,0-.5,1.81,1.89,1.89,0,0,0,2.12,2,.5.5,0,0,0-.26-1,.75.75,0,0,1-.7-.41,1.54,1.54,0,0,1-.08-1.19,8.76,8.76,0,0,1,.53-1.31,5,5,0,0,0,.46-1.54.5.5,0,1,0-1,0Z"/><path class="cls-15" d="M160.28,23.67c-1.26-.28-2.9-.27-3.93-1.14s-1.18-2.83-1.09-4.09c.06-.85-1.24-.84-1.32,0-.21,2.32-1.51,5.33-4.12,5.72a.66.66,0,0,0,0,1.27,5.36,5.36,0,0,1,4.79,4.95c0,.69,1.19.95,1.3.17s.21-1.46.31-2.2a3,3,0,0,1,.46-1.53,6.32,6.32,0,0,1,2.55-1.53,9.23,9.23,0,0,1,1.05-.35A.66.66,0,0,0,160.28,23.67Z"/><path class="cls-15" d="M154,96.41c-1.9-.42-4.39-.41-5.95-1.72s-1.77-4.28-1.64-6.19c.08-1.28-1.88-1.26-2,0-.32,3.51-2.29,8.06-6.23,8.64a1,1,0,0,0,0,1.92c3.89.61,7,3.42,7.24,7.48.06,1,1.79,1.44,2,.27l.48-3.33a4.56,4.56,0,0,1,.69-2.31c.91-1.17,2.54-1.73,3.85-2.31a11.11,11.11,0,0,1,1.6-.53A1,1,0,0,0,154,96.41Z"/><path class="cls-15" d="M234.87,107.62c-.71-.69-1.78-1.33-2.12-2.32s.36-2.36.93-3.17c.38-.54-.5-1-.88-.51a6.24,6.24,0,0,1-2.18,1.87,3.55,3.55,0,0,1-2.74.29.51.51,0,0,0-.61.8,4.17,4.17,0,0,1,1.15,5.21c-.27.48.41,1.08.8.61l1-1.23a2.58,2.58,0,0,1,.94-.89,4.28,4.28,0,0,1,2.22,0,8,8,0,0,1,1,.21A.51.51,0,0,0,234.87,107.62Z"/><path class="cls-4" d="M202.06,120c.82.17,1.64.34,2.45.56a1.13,1.13,0,0,0,.18,0,.75.75,0,0,0,.29-.09,6.9,6.9,0,0,1,2.16-.57c.38,0,.76-.08,1.15-.11s.32-.31.45-.65l.09-.22c.08-.2.07-.49.23-.65a9.43,9.43,0,0,0-1.5,0,10.93,10.93,0,0,0-4.37.94,4.09,4.09,0,0,0-.88.56S202.08,120,202.06,120Z"/><path class="cls-17" d="M213.16,110.22a25.08,25.08,0,0,0-5.45,12.87c0,.4.58.39.63,0a24.38,24.38,0,0,1,5.26-12.43c.26-.3-.18-.75-.44-.44Z"/><path class="cls-16" d="M225.81,104.83a7.78,7.78,0,0,0-3.12-6.64,4.61,4.61,0,0,0-4-1.08,7.67,7.67,0,0,0-1.71.74,7.07,7.07,0,0,1-2.77.94,3.09,3.09,0,0,0-2.53,2.46,7.87,7.87,0,0,0-.51,3,8.51,8.51,0,0,1-.25,2.84,4.34,4.34,0,0,0,.24,3.17c1.18,2,4.25,5,7.06,4.66,0,0,4,.94,6.15-3.61A16.9,16.9,0,0,0,225.81,104.83Z"/><g id="Group_3641-2" data-name="Group 3641"><path id="Rectangle_2151-2" data-name="Rectangle 2151" class="cls-2" d="M224,151.88l-28.59-4.53a3.75,3.75,0,0,1-3.12-4.29h0l2.64-16.68h0l36,5.71h0l-2.64,16.67A3.75,3.75,0,0,1,224,151.88Z"/><rect id="Rectangle_2152-2" data-name="Rectangle 2152" class="cls-3" x="207.21" y="110.06" width="11.74" height="36.45" rx="4.22" transform="translate(53.04 318.67) rotate(-81)"/><rect id="Rectangle_2153-2" data-name="Rectangle 2153" class="cls-4" x="207.32" y="109.35" width="11.74" height="36.45" rx="4.22" transform="translate(53.83 318.18) rotate(-81)"/><rect id="Rectangle_2154-2" data-name="Rectangle 2154" class="cls-5" x="210.56" y="131.75" width="3.39" height="4.88" rx="0.92" transform="translate(46.51 322.85) rotate(-81)"/></g></g></g></svg>