<svg id="Layer_1" data-name="Layer 1" xmlns="http://www.w3.org/2000/svg" viewBox="0 0 27 27"><defs><style>.cls-1{fill:#e6002d;}.cls-2{fill:#fff;}</style></defs><title>btn_5_default</title><circle class="cls-1" cx="13.5" cy="13.5" r="13.5"/><path class="cls-2" d="M17.13,7.67V9.32H11.67l-.32,3.14h0a3.15,3.15,0,0,1,1.22-.77A3.86,3.86,0,0,1,14,11.45a3.47,3.47,0,0,1,2.63,1.06,4.06,4.06,0,0,1,1,2.91,3.6,3.6,0,0,1-1.34,2.9,4.53,4.53,0,0,1-2.95,1,4.3,4.3,0,0,1-2.67-.85,3.33,3.33,0,0,1-1.36-2.53h1.84a1.93,1.93,0,0,0,.74,1.39,2.48,2.48,0,0,0,1.47.4,2.48,2.48,0,0,0,1.71-.62,2.19,2.19,0,0,0,.69-1.68,2.64,2.64,0,0,0-.59-1.81A2.12,2.12,0,0,0,13.5,13a2.86,2.86,0,0,0-1.28.26,2.06,2.06,0,0,0-.93.88H9.55l.63-6.43Z"/></svg>