<svg id="Layer_1" data-name="Layer 1" xmlns="http://www.w3.org/2000/svg" viewBox="0 0 27 27"><defs><style>.cls-1{fill:#efefef;}.cls-2{fill:#fff;}</style></defs><title>btn_6_disable</title><circle class="cls-1" cx="13.5" cy="13.5" r="13.5"/><path class="cls-2" d="M17.45,10.68H15.62a1.83,1.83,0,0,0-2-1.58,2,2,0,0,0-1.82,1.12,4.83,4.83,0,0,0-.66,2.64V13h.08a2.87,2.87,0,0,1,1.2-1A3.39,3.39,0,0,1,14,11.64a3.5,3.5,0,0,1,2.69,1.07,3.9,3.9,0,0,1,1,2.77,3.76,3.76,0,0,1-1.17,2.83,4,4,0,0,1-2.87,1.12,3.74,3.74,0,0,1-3.22-1.52,6.74,6.74,0,0,1-1.09-4.1A7.89,7.89,0,0,1,10.5,9.29a3.61,3.61,0,0,1,3.15-1.73Q17,7.56,17.45,10.68ZM11.94,13.8a2.43,2.43,0,0,0-.59,1.74A2.32,2.32,0,0,0,12,17.26a2.16,2.16,0,0,0,1.6.62,2.09,2.09,0,0,0,1.62-.67,2.44,2.44,0,0,0,.63-1.73,2.39,2.39,0,0,0-.59-1.68,2.17,2.17,0,0,0-1.65-.64A2.07,2.07,0,0,0,11.94,13.8Z"/></svg>