<svg id="Layer_1" data-name="Layer 1" xmlns="http://www.w3.org/2000/svg" viewBox="0 0 27 27"><defs><style>.cls-1{fill:#efefef;}.cls-2{fill:#fff;}</style></defs><title>btn_2_disable</title><circle class="cls-1" cx="13.5" cy="13.5" r="13.5"/><path class="cls-2" d="M16.41,8.63a3.18,3.18,0,0,1,1.06,2.48,4,4,0,0,1-1.12,2.71A14.71,14.71,0,0,1,14,15.66a5.72,5.72,0,0,0-2.13,2h5.63v1.65h-8a4.41,4.41,0,0,1,1.14-3,15.55,15.55,0,0,1,2.63-2.1,10.56,10.56,0,0,0,1.57-1.28,2.7,2.7,0,0,0,.75-1.81,1.84,1.84,0,0,0-.5-1.39,2.15,2.15,0,0,0-1.49-.45A1.84,1.84,0,0,0,12,10a3.49,3.49,0,0,0-.58,2H9.58A4.4,4.4,0,0,1,10.7,8.92a3.82,3.82,0,0,1,3-1.25A4,4,0,0,1,16.41,8.63Z"/></svg>