<svg id="Layer_1" data-name="Layer 1" xmlns="http://www.w3.org/2000/svg" viewBox="0 0 27 27"><defs><style>.cls-1{fill:#efefef;}.cls-2{fill:#fff;}</style></defs><title>btn_3_disable</title><circle class="cls-1" cx="13.5" cy="13.5" r="13.5"/><path class="cls-2" d="M16.41,8.39a2.83,2.83,0,0,1,1,2.32,2.46,2.46,0,0,1-1.9,2.5,3.24,3.24,0,0,1,1.55.93,2.42,2.42,0,0,1,.58,1.67,3.35,3.35,0,0,1-1.1,2.59,4.37,4.37,0,0,1-3,1,4.3,4.3,0,0,1-2.87-.91,4.07,4.07,0,0,1-1.34-2.94h1.91a2.32,2.32,0,0,0,.7,1.71,2.25,2.25,0,0,0,1.58.56,2.38,2.38,0,0,0,1.71-.61,1.85,1.85,0,0,0,.56-1.36,1.73,1.73,0,0,0-.59-1.44A2.57,2.57,0,0,0,13.52,14h-.8V12.57h.8a2.37,2.37,0,0,0,1.54-.43,1.61,1.61,0,0,0,.51-1.28,1.66,1.66,0,0,0-.46-1.26,2.23,2.23,0,0,0-1.49-.43,2.21,2.21,0,0,0-1.55.5,2.22,2.22,0,0,0-.67,1.54H9.55a3.72,3.72,0,0,1,1.28-2.69,4,4,0,0,1,2.77-.94A4.39,4.39,0,0,1,16.41,8.39Z"/></svg>