<svg xmlns="http://www.w3.org/2000/svg" width="10.616" height="14" viewBox="0 0 10.616 14">
  <path id="Path_1822" data-name="Path 1822" d="M12.3,12.531V7.789a1.469,1.469,0,0,0-1.161-1.437V4.211a4.142,4.142,0,0,0-8.283-.138q0,.069,0,.138V6.352A1.467,1.467,0,0,0,1.692,7.789v4.742A1.468,1.468,0,0,0,3.16,14h7.68a1.468,1.468,0,0,0,1.468-1.469H12.3ZM7.637,10.79v1.455H6.34V10.8a1.3,1.3,0,1,1,1.3,0ZM8.969,6.153H5.008v-2.1a1.981,1.981,0,0,1,3.961-.011V6.153Z" transform="translate(-1.692 0)" fill="#ff6621"/>
</svg>
