<svg id="Layer_1" data-name="Layer 1" xmlns="http://www.w3.org/2000/svg" viewBox="0 0 146.07 30"><defs><style>.cls-1{fill:none;}.cls-2{fill:#ed193a;}</style></defs><path class="cls-1" d="M59.77,14.86H55.39c-.19,0-.31,0-.35.08a.86.86,0,0,0-.07.38v.62a.62.62,0,0,0,.07.38.42.42,0,0,0,.35.15h4.38a.64.64,0,0,0,.36-.15c.09-.05.14-.18.14-.38v-.62a.93.93,0,0,0-.14-.3C60.08,14.91,60,14.86,59.77,14.86Z"/><path class="cls-1" d="M60.48,9.93a.45.45,0,0,0,.07.31.46.46,0,0,0,.36.16h2.26V9.63A.67.67,0,0,0,63,9.17.45.45,0,0,0,62.6,9H60.48Z"/><path class="cls-1" d="M59.57,12.55a1.35,1.35,0,0,1-.85-.38,1.37,1.37,0,0,1-.15-.21,1.61,1.61,0,0,1-.21-.79V9H56.88a5.08,5.08,0,0,1-.5,1.69,6.12,6.12,0,0,1-2,1.78l-.39.23h7.07a1.28,1.28,0,0,1,.78.26,1.94,1.94,0,0,1,.21.2,1.06,1.06,0,0,1,.35.84v3.16a1.46,1.46,0,0,1-.42,1l-.14.14a1.1,1.1,0,0,1-.29.17H62a1.57,1.57,0,0,0,.85.15.61.61,0,0,0,.35-.62V12.55h-3.6Z"/><path class="cls-1" d="M54.68,9.32A1.18,1.18,0,0,0,54.75,9H52.56a.71.71,0,0,0-.35.16.51.51,0,0,0-.14.38v1.54a.86.86,0,0,1,.35-.23,6.86,6.86,0,0,0,1-.38,3.08,3.08,0,0,0,1-.64A1.29,1.29,0,0,0,54.68,9.32Z"/><path class="cls-1" d="M41.07,27.39a.33.33,0,0,0,.26-.08.44.44,0,0,0,.08-.32,1,1,0,0,0-.22-.7.76.76,0,0,0-.57-.25h0a.71.71,0,0,0-.59.34,2.09,2.09,0,0,0-.25,1h1.33Z"/><path class="cls-1" d="M58.57,6.78h.78a6.36,6.36,0,0,0,.5-1.38H55.53c0,.1.21.56.5,1.38Z"/><path class="cls-1" d="M94.3,27.39a.34.34,0,0,0,.27-.08.49.49,0,0,0,.08-.32,1.07,1.07,0,0,0-.22-.7.76.76,0,0,0-.58-.25h0a.7.7,0,0,0-.58.34,2,2,0,0,0-.25,1H94.3Z"/><path class="cls-1" d="M101.58,10.86a1.35,1.35,0,0,1-.28-.46,2.54,2.54,0,0,1,.21-1.7L102,7.37l.68-2q.21-.62-.42-.54h-1.49c-.23,0-.37,0-.42.16a.45.45,0,0,0-.14.46V16.63a2,2,0,0,1,1.06-.16c.26.06.51.1.73.13a2,2,0,0,0,1.25-.13,1,1,0,0,0,.42-.69.21.21,0,0,0,.07-.15q.39-1.85-1.74-4.35Z"/><path class="cls-1" d="M69,27.39a.33.33,0,0,0,.26-.08A.44.44,0,0,0,69.3,27a1,1,0,0,0-.22-.7.76.76,0,0,0-.57-.25h0a.72.72,0,0,0-.59.34,2.09,2.09,0,0,0-.25,1H69Z"/><path class="cls-1" d="M125.82,28a.76.76,0,0,0-.32.63.57.57,0,0,0,.15.42.59.59,0,0,0,.43.15l.19,0a.93.93,0,0,0,.5-.26,1,1,0,0,0,.28-.76V27.6a5.42,5.42,0,0,0-.78.15A1.93,1.93,0,0,0,125.82,28Z"/><path class="cls-1" d="M143.29,27.39a.36.36,0,0,0,.27-.08.49.49,0,0,0,.08-.32,1,1,0,0,0-.23-.7.76.76,0,0,0-.57-.25h0a.72.72,0,0,0-.59.34,2.21,2.21,0,0,0-.25,1h1.33Z"/><path class="cls-1" d="M19.8,19.15a.7.7,0,1,0,.73.7A.72.72,0,0,0,19.8,19.15Z"/><path class="cls-1" d="M139.57,17.09a2.12,2.12,0,0,1,.57,1.39v.15h1.13a.76.76,0,0,0,.21-.54v-1h-1.91Z"/><path class="cls-1" d="M134.05,17.09h-2c-.19.05-.28.1-.28.16a.44.44,0,0,0-.07.3V18a.45.45,0,0,0,.07.31.39.39,0,0,0,.28.08h2a.55.55,0,0,0,.36-.08.45.45,0,0,0,.07-.31v-.46c0-.2-.07-.3-.07-.3A.45.45,0,0,0,134.05,17.09Z"/><path d="M130.09,4.39h6.09v.39h-4.74a.63.63,0,0,0-.57.23c-.05.16-.09.34-.14.54a1.06,1.06,0,0,0,.14.54.75.75,0,0,0,.57.23H143a.67.67,0,0,0,.5-.23c0-.16.09-.33.14-.54a1.5,1.5,0,0,0-.14-.61,3.7,3.7,0,0,0-.5-.16h-4.8V4.39h6.36a.62.62,0,0,0,.5-.3.8.8,0,0,0,.21-.54.73.73,0,0,0-.21-.62.69.69,0,0,0-.5-.23h-6.44A.82.82,0,0,0,137.8,2a.82.82,0,0,0-.63-.23h0a1.16,1.16,0,0,0-.77.23.94.94,0,0,0-.21.69h-6.09a.61.61,0,0,0-.56.23.9.9,0,0,0-.21.62,1.07,1.07,0,0,0,.21.61A.7.7,0,0,0,130.09,4.39Z"/><path d="M31.59,10a1.12,1.12,0,0,0-.85.39,1.93,1.93,0,0,0-.28.84,1.4,1.4,0,0,0,.28.85,1.12,1.12,0,0,0,.85.31H43.75a1.05,1.05,0,0,0,.78-.39,1.85,1.85,0,0,0,.28-.77,1.5,1.5,0,0,0-.28-.92,1.64,1.64,0,0,0-.78-.31Z"/><path d="M31,5.4H44.46A1.05,1.05,0,0,0,45.24,5a1.77,1.77,0,0,0,.28-.77,1.48,1.48,0,0,0-.28-.92A1.55,1.55,0,0,0,44.46,3H31a1.1,1.1,0,0,0-.84.38,1.89,1.89,0,0,0-.29.85,1.41,1.41,0,0,0,.29.85A1.09,1.09,0,0,0,31,5.4Z"/><path d="M45.38,19.63a1.08,1.08,0,0,0,.78-.38,2,2,0,0,0,.28-.77,1.53,1.53,0,0,0-.28-.93,1.64,1.64,0,0,0-.78-.3H30.11a1.08,1.08,0,0,0-.85.38,2,2,0,0,0-.29.85,1.38,1.38,0,0,0,.29.84,1.07,1.07,0,0,0,.85.31Z"/><path d="M133.1,11H130a.64.64,0,0,0-.57.23c0,.16-.09.34-.13.54a1,1,0,0,0,.13.54.78.78,0,0,0,.57.23h14.36a.65.65,0,0,0,.49-.23q.07-.23.15-.54a1.37,1.37,0,0,0-.15-.61,3.53,3.53,0,0,0-.49-.16h-6.22v-.46h3.74a.67.67,0,0,0,.5-.23c0-.15.09-.33.14-.54a1.5,1.5,0,0,0-.14-.61,3.7,3.7,0,0,0-.5-.16H131.79a.64.64,0,0,0-.57.23l-.14.54a1,1,0,0,0,.14.54.78.78,0,0,0,.57.23h4.39V11Z"/><path d="M129.67,8.55h13.86l.07.08-.49.38a.86.86,0,0,0-.22.62.87.87,0,0,0,.28.69.78.78,0,0,0,.57.23c.43,0,1-.59,1.84-1.77a2.18,2.18,0,0,0,.49-1.08.84.84,0,0,0-.28-.69A1,1,0,0,0,145,6.7H129.67a.86.86,0,0,0-.64.23,1,1,0,0,0-.21.7,1.07,1.07,0,0,0,.21.61A1.11,1.11,0,0,0,129.67,8.55Z"/><path d="M145.23,13H129.39a.73.73,0,0,0-.64.31.88.88,0,0,0-.21.62,1.07,1.07,0,0,0,.21.61.8.8,0,0,0,.64.23h12.09v.54h-4a.78.78,0,0,0-.35.07.67.67,0,0,0-.29.24.88.88,0,0,0-.21.62,1.07,1.07,0,0,0,.21.61.71.71,0,0,0,.29.18,1.23,1.23,0,0,0,.35.05h.42a1.9,1.9,0,0,0-.07.46,3.38,3.38,0,0,0,.64,1.16.87.87,0,0,0,.56.54h.29v.07a1.61,1.61,0,0,0,.07.85,1.55,1.55,0,0,0,1.09.6,4.94,4.94,0,0,0,.61.09,2.5,2.5,0,0,0,1.62-.46,2,2,0,0,0,.71-1.54V17.09h1a.93.93,0,0,0,.57-.23,1.07,1.07,0,0,0,.21-.61,1,1,0,0,0-.21-.7.78.78,0,0,0-.57-.23h-1v-.54h1.77a.85.85,0,0,0,.56-.23,1.07,1.07,0,0,0,.21-.61,1,1,0,0,0-.21-.7A.74.74,0,0,0,145.23,13Zm-3.75,5.08a.76.76,0,0,1-.21.54h-1.13v-.15a2.12,2.12,0,0,0-.57-1.39h1.91Z"/><path d="M66.14,3.47a1.65,1.65,0,0,0-.71-.31H58.72V2.93a1.15,1.15,0,0,0-.15-.59.82.82,0,0,0-.21-.25.9.9,0,0,0-.71-.31,1,1,0,0,0-.77.31,1,1,0,0,0-.29.84v.23H50a1,1,0,0,0-.78.31,1.21,1.21,0,0,0-.28.85,1.09,1.09,0,0,0,.28.77A1,1,0,0,0,50,5.4h3.32l.14.35.42,1H51.29a1.23,1.23,0,0,0-.92.46A1.56,1.56,0,0,0,50,8.32V19.63a1.48,1.48,0,0,0,.28.92,1.55,1.55,0,0,0,.78.31,1,1,0,0,0,.78-.38,2,2,0,0,0,.28-.85V12.94a1.65,1.65,0,0,0,1.2.07c-.05,0-.07,0-.07.08a1.53,1.53,0,0,0-.35.92v3.16a1.92,1.92,0,0,0,.35,1.08,1.2,1.2,0,0,0,.21.17,1.47,1.47,0,0,0,.64.21h7a.08.08,0,0,1,.14,0,1.18,1.18,0,0,0-.57.77,1.44,1.44,0,0,0,.15.92,1.49,1.49,0,0,0,1.06.57,6.37,6.37,0,0,0,1.62.05,2.34,2.34,0,0,0,1.14-.39,2.19,2.19,0,0,0,.7-1.61V8.4a2,2,0,0,0-.49-1.16,1.32,1.32,0,0,0-1-.46H61.54a2.35,2.35,0,0,1,.21-.46c0-.15,0-.29.08-.42A2.74,2.74,0,0,1,62,5.4h3.46a.94.94,0,0,0,.71-.31,1.09,1.09,0,0,0,.28-.77A1.21,1.21,0,0,0,66.14,3.47ZM58.57,5.4h1.28a6.36,6.36,0,0,1-.5,1.38H56c-.29-.82-.45-1.28-.5-1.38Zm-6.15,5.46a.86.86,0,0,0-.35.23V9.55a.51.51,0,0,1,.14-.38A.71.71,0,0,1,52.56,9h2.19a1.18,1.18,0,0,1-.07.31,1.29,1.29,0,0,1-.31.52,3.08,3.08,0,0,1-1,.64A6.86,6.86,0,0,1,52.42,10.86Zm7.85,5.08c0,.2-.05.33-.14.38a.64.64,0,0,1-.36.15H55.39a.42.42,0,0,1-.35-.15.62.62,0,0,1-.07-.38v-.62a.86.86,0,0,1,.07-.38s.16-.08.35-.08h4.38c.2,0,.31.05.36.16a.93.93,0,0,1,.14.3ZM63.17,18a.61.61,0,0,1-.35.62,1.57,1.57,0,0,1-.85-.15h-.43a1.1,1.1,0,0,0,.29-.17l.14-.14a1.46,1.46,0,0,0,.42-1V14a1.06,1.06,0,0,0-.35-.84,1.94,1.94,0,0,0-.21-.2,1.28,1.28,0,0,0-.78-.26H54l.39-.23a6.12,6.12,0,0,0,2-1.78A5.08,5.08,0,0,0,56.88,9h1.48v2.16a1.61,1.61,0,0,0,.21.79,1.37,1.37,0,0,0,.15.21,1.35,1.35,0,0,0,.85.38h3.6ZM61.83,9h.77a.45.45,0,0,1,.36.16.67.67,0,0,1,.21.46v.77H60.91a.46.46,0,0,1-.36-.16.45.45,0,0,1-.07-.31V9Z"/><path d="M105.33,17.48a5.53,5.53,0,0,0,.14-4.31A8.3,8.3,0,0,0,103.56,10c-.14-.2-.12-.59.07-1.15l1.42-4.31c0-.31.09-.59.14-.85a1.69,1.69,0,0,0-.28-.77,1.39,1.39,0,0,0-1.06-.46H99.39a1.35,1.35,0,0,0-1.06.39,1.93,1.93,0,0,0-.42,1.23V13.7l-.22-.23a.8.8,0,0,0-.7-.3H94.58a5.3,5.3,0,0,0,.07-.85V10.7h1.84a.83.83,0,0,0,.71-.38,1.07,1.07,0,0,0,.28-.77,1.21,1.21,0,0,0-.28-.85.82.82,0,0,0-.71-.3H94.65V6h2a.84.84,0,0,0,.71-.39,1.05,1.05,0,0,0,.28-.76A1.21,1.21,0,0,0,97.34,4a.81.81,0,0,0-.71-.31h-2V3.09a1.42,1.42,0,0,0-.28-1,1.14,1.14,0,0,0-1.56,0,1.77,1.77,0,0,0-.35,1V3.7H90.27a1,1,0,0,0-.78.31,1.21,1.21,0,0,0-.28.85,1.05,1.05,0,0,0,.28.76,1,1,0,0,0,.78.39h2.19V8.4H90.34a1,1,0,0,0-.78.3,1.21,1.21,0,0,0-.28.85,1.07,1.07,0,0,0,.28.77,1,1,0,0,0,.78.38h2.12v2.47H90a1,1,0,0,0-.78.3,1.23,1.23,0,0,0-.28.85,1.07,1.07,0,0,0,.28.77,1,1,0,0,0,.78.38h1.9a.07.07,0,0,0-.07.08,5.51,5.51,0,0,1-2.4,2.85,1.13,1.13,0,0,0-.64.77,2.06,2.06,0,0,0,.08.92,1,1,0,0,0,.7.54c.33.15.9-.05,1.7-.62a8.48,8.48,0,0,0,2.9-4.54H97c.32,0,.63-.23.92-.69v4.85a1.48,1.48,0,0,0,.28.92,1.33,1.33,0,0,0,.85.39,1.12,1.12,0,0,0,.77-.31,2.56,2.56,0,0,0,.36-1V18.55a1,1,0,0,0,.56.31A7.82,7.82,0,0,0,102,19a4,4,0,0,0,.61,0,8.22,8.22,0,0,0,1.2-.24A2.94,2.94,0,0,0,105.33,17.48Zm-1.63-1.85a.21.21,0,0,1-.07.15,1,1,0,0,1-.42.69,2,2,0,0,1-1.25.13c-.22,0-.47-.07-.73-.13a2,2,0,0,0-1.06.16V5.4a.45.45,0,0,1,.14-.46c0-.16.19-.21.42-.16h1.49q.63-.08.42.54L102,7.37l-.45,1.33a2.54,2.54,0,0,0-.21,1.7,1.35,1.35,0,0,0,.28.46l.38.42Q104.09,13.79,103.7,15.63Z"/><path d="M84.92,20.63a1.93,1.93,0,0,0,.92-.23,1.5,1.5,0,0,0,.43-.85,1.83,1.83,0,0,0-.21-.84,2.92,2.92,0,0,0-1.91-.54,7.64,7.64,0,0,1-4.6-2c0-.05,0-.1-.14-.16H85a.86.86,0,0,0,.71-.38,1.07,1.07,0,0,0,.28-.77A1.21,1.21,0,0,0,85.7,14,.81.81,0,0,0,85,13.7H78.7v-.84H85a.84.84,0,0,0,.71-.39A1.07,1.07,0,0,0,86,11.7a1.19,1.19,0,0,0-.28-.84.79.79,0,0,0-.71-.31H78.7V9.63h5.23a.92.92,0,0,0,.71-.31,1.09,1.09,0,0,0,.28-.77,1.21,1.21,0,0,0-.28-.85,1.58,1.58,0,0,0-.71-.3H78.7V6.63h5.94a.86.86,0,0,0,.71-.39,1.09,1.09,0,0,0,.28-.77,1.17,1.17,0,0,0-.28-.84.79.79,0,0,0-.71-.31h-3c.14-.36.26-.64.35-.85a1.46,1.46,0,0,0,.07-1,1.17,1.17,0,0,0-.57-.62,2,2,0,0,0-.77,0,7,7,0,0,0-1.41,2.39v.08H76a4.32,4.32,0,0,0-1.2-2.08A.87.87,0,0,0,74,1.78a1.16,1.16,0,0,0-.78.31,1.48,1.48,0,0,0-.35.77,1.56,1.56,0,0,0,.35.92,1.89,1.89,0,0,1,.36.54H70.43a1,1,0,0,0-.78.31,1.17,1.17,0,0,0-.29.84,1.1,1.1,0,0,0,.29.77,1.08,1.08,0,0,0,.78.39h6V7.4H71.13a1,1,0,0,0-.78.3,1.26,1.26,0,0,0-.28.85,1.14,1.14,0,0,0,.28.77,1,1,0,0,0,.78.31h5.31v.92h-6.3a1,1,0,0,0-.78.31,1.23,1.23,0,0,0-.28.84,1.12,1.12,0,0,0,.28.77,1.08,1.08,0,0,0,.78.39h6.3v.84h-6.3a1,1,0,0,0-.78.31,1.26,1.26,0,0,0-.28.85A1.12,1.12,0,0,0,70.14,16h5.73c-.75,1-2.69,1.67-5.8,2.08a1.13,1.13,0,0,0-1.34,1.23,1.32,1.32,0,0,0,.35.93,1.48,1.48,0,0,0,.92.38q5.73-.54,7.71-3.23a13.64,13.64,0,0,0,4.45,2.77A11.62,11.62,0,0,0,84.92,20.63Z"/><path d="M125.81,20.09a1.47,1.47,0,0,0,.21-1,1.12,1.12,0,0,0-.49-.92,17.3,17.3,0,0,1-5.17-6,20.64,20.64,0,0,1-1.9-7.31,4.62,4.62,0,0,1,.07-.7V3.39a1.49,1.49,0,0,0-.36-1.07,1.55,1.55,0,0,0-.78-.31,1.1,1.1,0,0,0-.84.38,1.46,1.46,0,0,0-.29,1v.77q0,8.33-5.59,13.09a.17.17,0,0,0-.13.07,7.74,7.74,0,0,1-1.21.85,1.63,1.63,0,0,0-.7.85,1.58,1.58,0,0,0,.14.92,1.08,1.08,0,0,0,.71.61,1.46,1.46,0,0,0,.91-.15,4.6,4.6,0,0,0,1.49-.92,19,19,0,0,0,5.58-8.62A22,22,0,0,0,124,20.25a1.9,1.9,0,0,0,1,.3A.87.87,0,0,0,125.81,20.09Z"/><path d="M136.32,18.94V16.47a1.07,1.07,0,0,0-.29-.76,2,2,0,0,0-.84-.39h-4.32a.86.86,0,0,0-.71.39,1.07,1.07,0,0,0-.28.76v2.47a1.5,1.5,0,0,0,.28.92.8.8,0,0,0,.71.31h4.32a1,1,0,0,0,.77-.39A1.48,1.48,0,0,0,136.32,18.94ZM134.48,18a.45.45,0,0,1-.07.31.55.55,0,0,1-.36.08h-2a.39.39,0,0,1-.28-.08.45.45,0,0,1-.07-.31v-.46a.44.44,0,0,1,.07-.3c0-.06.09-.11.28-.16h2a.45.45,0,0,1,.36.16s0,.1.07.3Z"/><path d="M61.64,25.76a1.23,1.23,0,0,0-.82.32,1.73,1.73,0,0,0-.52.92V25.81l-1.69.08v.34h.22a.53.53,0,0,1,.37.12.55.55,0,0,1,.12.39v2.17a.26.26,0,0,1-.09.21.52.52,0,0,1-.31.08h-.34v.36h2.76V29.2h-.58a.29.29,0,0,1-.22-.08.24.24,0,0,1-.08-.21v-.79A3.17,3.17,0,0,1,60.65,27a1.8,1.8,0,0,1,.47-.79.53.53,0,0,1,.33-.17.12.12,0,0,1,.09,0s0,0,0,.08a.36.36,0,0,1,0,.11.52.52,0,0,0-.08.25.46.46,0,0,0,.15.36A.5.5,0,0,0,62,27a.53.53,0,0,0,.39-.16.67.67,0,0,0-.08-.93A.92.92,0,0,0,61.64,25.76Z"/><path d="M57.34,29.08a.37.37,0,0,1-.13-.31v-3l-1.78.1v.35h.19a.54.54,0,0,1,.35.11.45.45,0,0,1,.12.33v1.2a1.23,1.23,0,0,1-.26.77.88.88,0,0,1-.72.33.69.69,0,0,1-.72-.74V25.79l-1.76.1v.35a.86.86,0,0,1,.49.12.4.4,0,0,1,.14.34v1.46a1.92,1.92,0,0,0,.16.83,1.12,1.12,0,0,0,.44.49,1.29,1.29,0,0,0,.68.16,1.67,1.67,0,0,0,.79-.19,2.79,2.79,0,0,0,.79-.68,4.36,4.36,0,0,0,.12.84l1.64-.05V29.2H57.7A.52.52,0,0,1,57.34,29.08Z"/><path d="M46.41,25.76a1.23,1.23,0,0,0-.82.32,1.73,1.73,0,0,0-.52.92V25.81l-1.69.08v.34h.23a.48.48,0,0,1,.35.12.51.51,0,0,1,.13.39v2.17a.26.26,0,0,1-.09.21.52.52,0,0,1-.31.08h-.34v.36h2.76V29.2h-.58a.31.31,0,0,1-.22-.08.24.24,0,0,1-.08-.21v-.79A3.17,3.17,0,0,1,45.42,27a1.8,1.8,0,0,1,.47-.79.53.53,0,0,1,.33-.17.12.12,0,0,1,.09,0,.15.15,0,0,1,0,.08.24.24,0,0,1,0,.11.63.63,0,0,0-.07.25.46.46,0,0,0,.15.36.5.5,0,0,0,.35.14.49.49,0,0,0,.38-.16.57.57,0,0,0,.16-.43A.63.63,0,0,0,47,26,1,1,0,0,0,46.41,25.76Z"/><path d="M41.6,29.07a1.42,1.42,0,0,1-.69.18,1.15,1.15,0,0,1-.33,0,1,1,0,0,1-.5-.32,1.74,1.74,0,0,1-.34-1.14h2.78a2.43,2.43,0,0,0-.26-1.16,1.63,1.63,0,0,0-.68-.67,2.2,2.2,0,0,0-1-.24h0a2.11,2.11,0,0,0-1.49.58,1.93,1.93,0,0,0-.6,1.44,1.8,1.8,0,0,0,.6,1.4,2.17,2.17,0,0,0,1.53.55h0a2,2,0,0,0,2-1.09l-.31-.18A2.31,2.31,0,0,1,41.6,29.07ZM40,26.38a.71.71,0,0,1,.59-.34h0a.76.76,0,0,1,.57.25,1,1,0,0,1,.22.7.44.44,0,0,1-.08.32.33.33,0,0,1-.26.08H39.74A2.09,2.09,0,0,1,40,26.38Z"/><path d="M33.72,27.69l-1.41-3.93H29.79v.36h.5a.56.56,0,0,1,.34.08.42.42,0,0,1,.09.32v3.75a.89.89,0,0,1-.24.64,1.07,1.07,0,0,1-.69.29v.36h2.32V29.2a1.22,1.22,0,0,1-.72-.28.79.79,0,0,1-.25-.6V24.08l2,5.48h.37l2-5.44v4.75a.32.32,0,0,1-.09.24.35.35,0,0,1-.25.09h-.6v.36h3.17V29.2h-.5a.53.53,0,0,1-.34-.1c-.06,0-.08-.12-.08-.23V24.44a.34.34,0,0,1,.07-.25.51.51,0,0,1,.29-.07h.56v-.36H35.15Z"/><path d="M51.14,29a1.37,1.37,0,0,1-.78.26,1.12,1.12,0,0,1-.86-.36,1.82,1.82,0,0,1-.33-1.24,2.17,2.17,0,0,1,.33-1.32,1,1,0,0,1,.81-.33,1.15,1.15,0,0,1,.49.1c.08,0,.13.09.13.14a.36.36,0,0,1-.08.15.85.85,0,0,0-.16.45.46.46,0,0,0,.15.36.6.6,0,0,0,.41.14.66.66,0,0,0,.49-.18.65.65,0,0,0,.18-.48A.87.87,0,0,0,51.5,26a2,2,0,0,0-1.2-.3,2.53,2.53,0,0,0-1.77.6,2,2,0,0,0-.66,1.52,1.73,1.73,0,0,0,.56,1.37,2.22,2.22,0,0,0,1.56.51,2.31,2.31,0,0,0,1.28-.34,2.08,2.08,0,0,0,.79-1l-.33-.14A1.82,1.82,0,0,1,51.14,29Z"/><path d="M65,29.12a.21.21,0,0,1-.09-.19V25.81l-1.76.08v.35h.18a.5.5,0,0,1,.34.11.39.39,0,0,1,.13.31v2.13a.43.43,0,0,1-.09.31.37.37,0,0,1-.29.1h-.27v.36h2.38V29.2h-.27A.38.38,0,0,1,65,29.12Z"/><path d="M74,27.31a6.7,6.7,0,0,0-.86-.2,2.71,2.71,0,0,1-.88-.25.35.35,0,0,1-.16-.32.39.39,0,0,1,.2-.35,1,1,0,0,1,.61-.15,1.48,1.48,0,0,1,.78.2,1.75,1.75,0,0,1,.59.7h.35l-.09-1.25h-.26L74,26a1.74,1.74,0,0,0-.55-.24,2,2,0,0,0-.57-.08,1.49,1.49,0,0,0-1,.36,1.12,1.12,0,0,0-.4.9,1,1,0,0,0,.22.65,1.32,1.32,0,0,0,.64.43,6.34,6.34,0,0,0,.94.22,2.42,2.42,0,0,1,.78.23.35.35,0,0,1,.15.31.48.48,0,0,1-.23.39,1.31,1.31,0,0,1-.69.15,1.56,1.56,0,0,1-1.54-1.05h-.35l.08,1.39h.32l.3-.33a2.13,2.13,0,0,0,.58.27,2.47,2.47,0,0,0,.63.08,1.82,1.82,0,0,0,1.16-.35,1,1,0,0,0,.44-.86,1.07,1.07,0,0,0-.23-.7A1.35,1.35,0,0,0,74,27.31Z"/><path d="M82.64,28.75a1.32,1.32,0,0,1-.94.45h-.9a.74.74,0,0,1-.42-.08.43.43,0,0,1-.09-.33V24.47a.33.33,0,0,1,.09-.26.48.48,0,0,1,.33-.09h.54v-.36H78v.36h.5a.51.51,0,0,1,.32.08.24.24,0,0,1,.1.23v4.43a.33.33,0,0,1-.09.25.41.41,0,0,1-.28.09H78v.36h5.5l.14-2.22H83.3A2.94,2.94,0,0,1,82.64,28.75Z"/><path d="M85.75,23.77a.69.69,0,0,0-.49.19.61.61,0,0,0,0,.9.69.69,0,0,0,.49.19.65.65,0,0,0,.48-.19.59.59,0,0,0,0-.9A.65.65,0,0,0,85.75,23.77Z"/><path d="M64.75,24.86a.59.59,0,0,0,0-.9.65.65,0,0,0-.48-.19.67.67,0,0,0-.49.19.59.59,0,0,0,0,.9.67.67,0,0,0,.49.19A.65.65,0,0,0,64.75,24.86Z"/><path d="M69.49,29.07a1.39,1.39,0,0,1-.69.18,1.15,1.15,0,0,1-.33,0,1.08,1.08,0,0,1-.5-.32,1.8,1.8,0,0,1-.34-1.14h2.78a2.56,2.56,0,0,0-.25-1.16,1.69,1.69,0,0,0-.68-.67,2.25,2.25,0,0,0-1-.24h0a2.07,2.07,0,0,0-1.48.58,1.94,1.94,0,0,0-.61,1.44,1.8,1.8,0,0,0,.6,1.4,2.17,2.17,0,0,0,1.53.55h0a2,2,0,0,0,2-1.09l-.31-.18A2.33,2.33,0,0,1,69.49,29.07Zm-1.61-2.69a.72.72,0,0,1,.59-.34h0a.76.76,0,0,1,.57.25,1,1,0,0,1,.22.7.44.44,0,0,1-.08.32.33.33,0,0,1-.26.08H67.63A2.09,2.09,0,0,1,67.88,26.38Z"/><path d="M86.51,29.12a.21.21,0,0,1-.09-.19V25.81l-1.75.08v.35h.17a.54.54,0,0,1,.35.11.41.41,0,0,1,.12.31v2.13a.43.43,0,0,1-.09.31.35.35,0,0,1-.29.1h-.26v.36H87V29.2h-.27A.38.38,0,0,1,86.51,29.12Z"/><path d="M128.48,29.23a.26.26,0,0,1-.23-.1.41.41,0,0,1-.09-.3V27a1.22,1.22,0,0,0-.19-.7,1,1,0,0,0-.5-.4,3.13,3.13,0,0,0-1.1-.18h-.1A2.46,2.46,0,0,0,125,26a.84.84,0,0,0-.44.68.5.5,0,0,0,.17.38.69.69,0,0,0,.45.14.59.59,0,0,0,.41-.13.44.44,0,0,0,.16-.36.64.64,0,0,0-.12-.35.31.31,0,0,1-.05-.11q0-.08.15-.15a1,1,0,0,1,.5-.12h0a.87.87,0,0,1,.55.2.65.65,0,0,1,.23.51v.53l-.78.14a5.2,5.2,0,0,0-1.39.43,1.06,1.06,0,0,0-.62,1,.77.77,0,0,0,.33.64,1.54,1.54,0,0,0,.94.26,2,2,0,0,0,.74-.14h0a2.59,2.59,0,0,0,.77-.54,1.23,1.23,0,0,0,.41.54,1.05,1.05,0,0,0,.59.15,1.63,1.63,0,0,0,.45-.06,2.45,2.45,0,0,0,.46-.23l-.18-.29A.61.61,0,0,1,128.48,29.23Zm-1.43-1.12a1,1,0,0,1-.28.76.93.93,0,0,1-.5.26l-.19,0a.59.59,0,0,1-.43-.15.57.57,0,0,1-.15-.42.76.76,0,0,1,.32-.63,1.93,1.93,0,0,1,.45-.2,5.42,5.42,0,0,1,.78-.15Z"/><path d="M122.66,25.76a1.23,1.23,0,0,0-.83.32,1.73,1.73,0,0,0-.52.92V25.81l-1.69.08v.34h.23a.52.52,0,0,1,.36.12.55.55,0,0,1,.12.39v2.17a.26.26,0,0,1-.09.21.52.52,0,0,1-.31.08h-.34v.36h2.76V29.2h-.58a.31.31,0,0,1-.22-.08.24.24,0,0,1-.08-.21v-.79a3.17,3.17,0,0,1,.19-1.09,1.8,1.8,0,0,1,.47-.79.53.53,0,0,1,.33-.17.12.12,0,0,1,.09,0s0,0,0,.08a.24.24,0,0,1,0,.11.63.63,0,0,0-.07.25.5.5,0,0,0,.5.5.53.53,0,0,0,.39-.16.61.61,0,0,0,.16-.43.64.64,0,0,0-.23-.5A.94.94,0,0,0,122.66,25.76Z"/><path d="M134.41,29.11a.34.34,0,0,1-.1-.28v-1.7a1.41,1.41,0,0,0-.34-1,1.2,1.2,0,0,0-.93-.37,1.75,1.75,0,0,0-.83.22,2.46,2.46,0,0,0-.74.65,6.37,6.37,0,0,0-.13-.8l-1.65.08v.34h.17a.57.57,0,0,1,.36.11.39.39,0,0,1,.14.3v2.19a.37.37,0,0,1-.1.27.36.36,0,0,1-.28.1h-.32v.36h2.47V29.2h-.3a.34.34,0,0,1-.26-.1.37.37,0,0,1-.1-.27V27.6a1.26,1.26,0,0,1,.28-.9.92.92,0,0,1,.72-.31.68.68,0,0,1,.53.22.89.89,0,0,1,.2.62v1.6a.33.33,0,0,1-.1.27.37.37,0,0,1-.29.1h-.25v.36h2.38V29.2h-.22A.44.44,0,0,1,134.41,29.11Z"/><path d="M118.23,29.08a.37.37,0,0,1-.13-.31v-3l-1.79.1v.35h.2a.51.51,0,0,1,.34.11.42.42,0,0,1,.13.33v1.2a1.19,1.19,0,0,1-.27.77A.88.88,0,0,1,116,29a.69.69,0,0,1-.51-.2.73.73,0,0,1-.2-.54V25.79l-1.76.1v.35a.89.89,0,0,1,.49.12.4.4,0,0,1,.13.34v1.46a1.92,1.92,0,0,0,.16.83,1.08,1.08,0,0,0,.45.49,1.29,1.29,0,0,0,.68.16,1.7,1.7,0,0,0,.79-.19,2.93,2.93,0,0,0,.79-.68,3.7,3.7,0,0,0,.12.84l1.63-.05V29.2h-.18A.51.51,0,0,1,118.23,29.08Z"/><path d="M143.82,29.07a1.42,1.42,0,0,1-.69.18,1.15,1.15,0,0,1-.33,0,1.08,1.08,0,0,1-.5-.32,1.74,1.74,0,0,1-.34-1.14h2.78a2.56,2.56,0,0,0-.25-1.16,1.65,1.65,0,0,0-.69-.67,2.2,2.2,0,0,0-1-.24h0a2.07,2.07,0,0,0-1.48.58,1.9,1.9,0,0,0-.61,1.44,1.8,1.8,0,0,0,.6,1.4,2.17,2.17,0,0,0,1.53.55h0A2.26,2.26,0,0,0,144,29.4a2.3,2.3,0,0,0,.83-.84l-.31-.18A2.33,2.33,0,0,1,143.82,29.07Zm-1.61-2.69a.72.72,0,0,1,.59-.34h0a.76.76,0,0,1,.57.25,1,1,0,0,1,.23.7.49.49,0,0,1-.08.32.36.36,0,0,1-.27.08H142A2.21,2.21,0,0,1,142.21,26.38Z"/><path d="M139,29a1.33,1.33,0,0,1-.78.26,1.13,1.13,0,0,1-.86-.36,1.82,1.82,0,0,1-.33-1.24,2.1,2.1,0,0,1,.34-1.32.93.93,0,0,1,.81-.33,1.1,1.1,0,0,1,.48.1c.09,0,.13.09.13.14a.31.31,0,0,1-.07.15.87.87,0,0,0-.17.45.44.44,0,0,0,.16.36.6.6,0,0,0,.41.14.65.65,0,0,0,.48-.18.62.62,0,0,0,.19-.48.87.87,0,0,0-.42-.72,2.06,2.06,0,0,0-1.21-.3,2.52,2.52,0,0,0-1.76.6,2,2,0,0,0-.67,1.52,1.76,1.76,0,0,0,.56,1.37,2.61,2.61,0,0,0,2.84.17,2,2,0,0,0,.8-1l-.33-.14A1.76,1.76,0,0,1,139,29Z"/><path d="M94.83,29.07a1.36,1.36,0,0,1-.68.18,1.27,1.27,0,0,1-.34,0,1,1,0,0,1-.49-.32A1.74,1.74,0,0,1,93,27.75h2.78a2.55,2.55,0,0,0-.26-1.16,1.63,1.63,0,0,0-.68-.67,2.25,2.25,0,0,0-1-.24h0a2.11,2.11,0,0,0-1.49.58,2,2,0,0,0-.56,1,2.25,2.25,0,0,0,0,.46,2.15,2.15,0,0,0,0,.45,1.82,1.82,0,0,0,.56,1,2.16,2.16,0,0,0,1.52.55h0A2.33,2.33,0,0,0,95,29.4a2.28,2.28,0,0,0,.82-.84l-.31-.18A2.33,2.33,0,0,1,94.83,29.07Zm-1.6-2.69a.7.7,0,0,1,.58-.34h0a.76.76,0,0,1,.58.25,1.07,1.07,0,0,1,.22.7.49.49,0,0,1-.08.32.34.34,0,0,1-.27.08H93A2,2,0,0,1,93.23,26.38Z"/><path d="M99,24.12h.56a.46.46,0,0,1,.29.08.29.29,0,0,1,.1.25v4.44a.31.31,0,0,1-.1.23.64.64,0,0,1-.36.08H99v.36h3.2V29.2h-.52a.49.49,0,0,1-.32-.09.27.27,0,0,1-.09-.22V24.4a.29.29,0,0,1,.08-.21.48.48,0,0,1,.27-.07h.58v-.36H99Z"/><path d="M91.78,24.5a.66.66,0,0,0,0-.28.79.79,0,0,0-.26-.36,1.36,1.36,0,0,0-.88-.25,2.13,2.13,0,0,0-1,.23,1.48,1.48,0,0,0-.64.69,2.69,2.69,0,0,0-.24,1.21v.15H88v.42h.68v2.61a.25.25,0,0,1-.07.21.4.4,0,0,1-.26.07H88v.36h2.86V29.2h-.7a.42.42,0,0,1-.23-.06.32.32,0,0,1-.06-.22V26.31h1v-.42h-1v-.77a2,2,0,0,1,.12-.69.71.71,0,0,1,.27-.34A.69.69,0,0,1,90.6,24a.55.55,0,0,1,.25.05c.05,0,.07.05.07.09s0,.09-.12.15a.47.47,0,0,0-.09.78.64.64,0,0,0,1-.27A.59.59,0,0,0,91.78,24.5Z"/><path d="M111.85,27.31a7,7,0,0,0-.87-.2,2.81,2.81,0,0,1-.88-.25.38.38,0,0,1-.16-.32.4.4,0,0,1,.21-.35,1,1,0,0,1,.6-.15,1.52,1.52,0,0,1,.79.2,1.93,1.93,0,0,1,.59.7h.34l-.08-1.25h-.26l-.28.31a1.8,1.8,0,0,0-.54-.24,2,2,0,0,0-.58-.08,1.49,1.49,0,0,0-1,.36,1.14,1.14,0,0,0-.39.9,1,1,0,0,0,.21.65,1.35,1.35,0,0,0,.65.43,5.82,5.82,0,0,0,.93.22,2.52,2.52,0,0,1,.79.23.35.35,0,0,1,.15.31.47.47,0,0,1-.24.39,1.31,1.31,0,0,1-.69.15,1.56,1.56,0,0,1-1.53-1.05h-.35l.08,1.39h.31l.3-.33a2.18,2.18,0,0,0,.59.27,2.47,2.47,0,0,0,.63.08,1.84,1.84,0,0,0,1.16-.35,1.07,1.07,0,0,0,.44-.86,1.13,1.13,0,0,0-.23-.7A1.45,1.45,0,0,0,111.85,27.31Z"/><path d="M107.83,29.11a.34.34,0,0,1-.1-.28v-1.7a1.41,1.41,0,0,0-.34-1,1.2,1.2,0,0,0-.93-.37,1.75,1.75,0,0,0-.83.22,2.46,2.46,0,0,0-.74.65,5,5,0,0,0-.13-.8l-1.65.08v.34h.17a.57.57,0,0,1,.36.11.39.39,0,0,1,.14.3v2.19a.37.37,0,0,1-.1.27.34.34,0,0,1-.28.1h-.32v.36h2.47V29.2h-.3a.34.34,0,0,1-.26-.1.37.37,0,0,1-.1-.27V27.6a1.31,1.31,0,0,1,.28-.9.92.92,0,0,1,.72-.31.67.67,0,0,1,.53.22.89.89,0,0,1,.2.62v1.6a.37.37,0,0,1-.09.27.4.4,0,0,1-.3.1H106v.36h2.38V29.2h-.22A.44.44,0,0,1,107.83,29.11Z"/><path class="cls-2" d="M8,3.53a.71.71,0,0,0,0-.82C7.52,2.22,3.47-.35,2,0-.36,1-2.27,20.54,6.36,21.78,1,15.06,6.39,6.1,8,3.53Z"/><path class="cls-2" d="M21.78,17.69a10.1,10.1,0,0,0-2,.55C14.89,20.13,12.45,25.06,5,22.13c-.06,0-.36-.11-.41-.11,4.29,6.1,9.11,9.21,13.42,5.19a9.87,9.87,0,0,0,1.76-3.46c.67-2,1.13-4.17,3.09-5.92a1.38,1.38,0,0,0-.61-.15C22.28,17.74,21.78,17.63,21.78,17.69Zm-2,2.86a.7.7,0,1,1,.73-.7A.72.72,0,0,1,19.8,20.55Z"/><path class="cls-2" d="M19.89,25.18c-.39.84-2.35,4.05-4.67,4.34C16.6,30.72,20,27.46,19.89,25.18Z"/><path class="cls-2" d="M8.77,22.12c-3.54-8.6,6.32-15,7.32-16.36.24-.32.34-.59.28-.78-.26-.6-3.44-4.38-5-4.49C6.53,3.81.07,19.08,8.77,22.12Z"/><path class="cls-2" d="M20.81,3.48C18.69,3.33,4.46,14.79,9.69,22.12c6.77.83,5.52-6,14.75-12.19a1.51,1.51,0,0,0,.69-1.29C25.08,7.91,22.37,3.74,20.81,3.48Z"/><path class="cls-2" d="M17.42,30c1.62.42,3.35-2.16,2.77-4C20.09,26.75,19.06,29.44,17.42,30Z"/></svg>